<?xml version="1.0" standalone="no"?>
<!DOCTYPE svg PUBLIC "-//W3C//DTD SVG 20010904//EN"
 "http://www.w3.org/TR/2001/REC-SVG-20010904/DTD/svg10.dtd">
<svg version="1.0" xmlns="http://www.w3.org/2000/svg"
 width="1024.000000pt" height="1024.000000pt" viewBox="0 0 1024.000000 1024.000000"
 preserveAspectRatio="xMidYMid meet">
<metadata>
Created by potrace 1.11, written by Peter Selinger 2001-2013
</metadata>
<g transform="translate(0.000000,1024.000000) scale(0.100000,-0.100000)"
fill="#000000" stroke="none">
<path d="M4284 8772 c6 -10 -44 -86 -51 -78 -3 3 -1 12 6 19 7 9 8 23 3 36 -6
17 -11 10 -25 -41 -10 -35 -22 -71 -27 -80 -13 -24 -13 -28 5 -28 14 0 19 12
16 33 0 4 4 7 9 7 6 0 10 4 10 9 0 6 11 22 25 37 14 15 25 33 25 40 0 8 5 14
10 14 6 0 10 6 10 14 0 8 6 17 13 19 6 3 2 6 -11 6 -13 1 -21 -3 -18 -7z"/>
<path d="M4348 8773 c0 -5 -2 -12 -3 -18 -2 -5 -3 -14 -4 -20 -1 -5 -6 -3 -12
5 -8 12 -9 9 -5 -11 4 -18 0 -31 -11 -40 -14 -12 -15 -11 -8 11 6 20 1 16 -24
-15 -24 -31 -27 -42 -17 -50 15 -12 10 -31 -15 -64 -14 -17 -19 -19 -19 -8 0
9 4 18 9 21 12 8 21 46 10 46 -5 0 -11 -11 -15 -24 -3 -14 -14 -32 -25 -42
-26 -24 -25 -47 2 -39 12 4 19 3 17 -1 -2 -5 -13 -28 -24 -51 -10 -24 -26 -42
-34 -42 -10 0 -11 2 -2 6 6 2 9 10 6 15 -4 6 1 17 11 25 15 10 16 16 7 25 -9
9 -15 2 -28 -28 -8 -21 -27 -63 -41 -93 -16 -35 -22 -62 -18 -78 3 -14 2 -22
-2 -20 -5 3 -10 -6 -11 -20 -1 -14 -6 -31 -11 -37 -5 -6 -12 -29 -16 -51 -8
-49 -46 -176 -56 -190 -4 -5 -13 -45 -20 -87 -7 -42 -16 -75 -21 -72 -8 5 -13
-24 -9 -60 0 -10 -5 -24 -14 -30 -8 -6 -17 -35 -20 -64 -5 -42 -3 -53 10 -58
9 -4 15 -19 15 -39 0 -35 -5 -40 -152 -177 -32 -30 -58 -60 -58 -68 0 -13 -2
-13 -10 0 -9 13 -14 7 -11 -12 0 -5 -5 -8 -12 -8 -19 0 -120 -107 -113 -119 5
-7 -2 -11 -16 -11 -24 0 -65 -33 -201 -162 -39 -38 -72 -68 -73 -68 -3 0 -68
-59 -153 -139 -20 -19 -35 -39 -33 -44 1 -4 -2 -6 -7 -3 -5 4 -17 -1 -26 -10
-14 -15 -14 -18 6 -35 15 -13 18 -19 8 -19 -8 0 -20 5 -27 12 -17 17 -28 2
-12 -17 7 -8 8 -15 2 -15 -5 0 -13 7 -16 17 -6 14 -11 12 -36 -12 -26 -25 -28
-30 -14 -38 8 -5 18 -6 21 -3 4 3 1 6 -5 6 -7 0 -12 5 -12 10 0 6 7 10 15 10
8 0 15 -4 15 -8 0 -5 11 -15 25 -22 25 -13 25 -14 8 -31 -30 -28 -68 -32 -88
-9 -17 19 -17 20 -1 20 9 0 14 -4 11 -10 -7 -12 21 -12 49 -1 11 4 15 10 10
13 -18 11 -84 20 -85 12 0 -5 -2 -17 -4 -26 -2 -10 1 -18 6 -18 6 0 7 -4 4
-10 -3 -5 -22 -10 -41 -10 -19 0 -34 -4 -34 -10 0 -5 7 -6 17 -3 10 4 14 2 10
-4 -5 -8 3 -8 27 -1 24 8 38 7 52 -1 17 -11 15 -12 -12 -8 -20 2 -30 -1 -28
-7 6 -15 -48 -14 -64 1 -10 10 -17 10 -32 0 -21 -13 -26 -27 -10 -27 6 0 10
-5 10 -11 0 -9 -4 -9 -14 0 -10 9 -23 2 -59 -29 -25 -22 -49 -40 -54 -40 -4 0
-23 -14 -41 -31 -26 -25 -31 -35 -25 -57 4 -15 6 -35 5 -45 0 -10 7 -21 16
-24 9 -4 21 -13 25 -20 5 -7 12 -11 17 -8 8 5 30 -24 30 -40 0 -4 -27 16 -59
44 -49 43 -61 60 -72 102 -7 27 -19 55 -27 61 -11 10 -11 5 2 -25 8 -21 15
-41 16 -45 0 -4 3 -16 6 -26 4 -12 0 -22 -10 -28 -22 -12 -20 -23 7 -37 21
-11 20 -11 -9 -8 -24 2 -31 0 -27 -10 3 -8 13 -11 24 -8 11 4 19 2 19 -4 0
-16 -46 -14 -62 2 -14 14 -38 12 -38 -4 0 -4 7 -6 16 -2 11 4 14 0 11 -18 -2
-13 -2 -18 0 -11 3 8 17 10 41 7 42 -6 76 9 53 24 -9 6 -10 11 -2 15 6 4 11 2
11 -4 0 -6 11 -22 24 -35 16 -16 21 -27 14 -31 -6 -4 -15 0 -19 9 -7 12 -14
13 -38 4 -27 -10 -28 -12 -13 -24 9 -7 22 -12 27 -13 6 0 3 4 -5 10 -26 16 -3
22 27 6 19 -11 23 -15 11 -16 -22 0 -24 -20 -3 -20 8 0 15 -4 15 -10 0 -5 -8
-10 -19 -10 -10 0 -24 -7 -31 -15 -9 -11 -16 -13 -24 -5 -18 18 -27 11 -15
-11 8 -15 14 -18 22 -10 6 6 22 10 36 10 24 -2 24 -2 4 -6 -13 -2 -23 -9 -23
-15 0 -6 7 -7 18 -3 31 13 45 10 48 -8 4 -25 7 -28 24 -17 13 8 13 10 -1 10
-9 0 -16 7 -16 16 0 11 7 14 21 10 12 -3 31 -6 44 -6 12 0 22 -4 22 -9 0 -5
-9 -7 -19 -4 -13 3 -21 -2 -26 -16 -3 -12 -15 -21 -25 -21 -10 0 -25 -3 -33
-6 -8 -3 -21 2 -30 10 -9 9 -23 16 -31 16 -9 0 -16 5 -16 10 0 6 -7 10 -15 10
-8 0 -15 4 -15 9 0 5 -9 12 -19 16 -10 3 -21 15 -24 25 -3 11 -11 20 -19 20
-10 0 -10 -2 2 -10 8 -5 12 -12 8 -15 -3 -3 -13 2 -23 11 -13 14 -14 19 -3 25
9 6 6 9 -10 9 -12 0 -41 9 -63 20 -37 20 -40 20 -46 3 -4 -10 -16 -26 -28 -36
-16 -14 -17 -16 -2 -11 11 4 17 1 17 -9 0 -8 10 -17 23 -20 21 -6 21 -6 3 8
-13 10 -15 15 -6 15 16 0 71 -56 63 -64 -6 -6 12 -10 35 -7 16 2 16 -16 0 -22
-22 -7 -58 15 -64 40 -4 12 -10 20 -15 17 -6 -3 -28 4 -50 15 -49 26 -74 16
-30 -12 18 -11 29 -22 26 -25 -2 -3 -14 3 -25 13 -18 16 -23 17 -45 5 -14 -7
-32 -24 -40 -37 -9 -12 -22 -23 -30 -23 -8 0 -15 -7 -15 -17 0 -9 -3 -14 -6
-10 -9 9 -44 -31 -44 -50 0 -15 -2 -16 -10 -3 -8 13 -10 12 -10 -2 0 -10 -6
-18 -13 -18 -14 0 -117 -87 -116 -98 3 -22 -3 -30 -21 -25 -14 4 -20 0 -20
-12 0 -14 -3 -15 -15 -5 -12 10 -15 9 -15 -4 0 -9 7 -19 16 -23 9 -3 13 -12 9
-22 -5 -12 -3 -13 5 -4 9 8 20 6 46 -9 39 -23 44 -31 12 -19 -16 6 -27 4 -36
-8 -7 -9 -11 -10 -7 -3 7 13 6 14 -46 16 -26 1 -35 -2 -32 -10 3 -7 11 -10 19
-7 12 4 13 1 3 -20 -7 -15 -16 -24 -21 -21 -4 3 -6 9 -3 14 8 14 -24 35 -36
23 -8 -8 -7 -13 1 -18 8 -5 3 -13 -15 -25 l-27 -18 33 -16 c17 -9 38 -16 46
-16 7 0 13 -4 13 -8 0 -12 -34 -11 -42 2 -4 6 -10 3 -14 -8 -6 -17 -8 -16 -21
5 -13 23 -14 23 -8 -8 5 -24 2 -34 -12 -42 -11 -6 -13 -11 -5 -11 7 0 10 -4 7
-10 -3 -5 -2 -10 4 -10 5 0 12 7 14 15 4 12 5 11 3 -1 -2 -24 -21 -28 -39 -9
-9 8 -20 15 -26 15 -6 0 -11 3 -11 8 0 4 -11 15 -25 25 -28 20 -43 6 -19 -17
9 -9 17 -26 20 -39 9 -59 18 -84 37 -104 17 -19 18 -23 5 -23 -9 0 -23 11 -32
25 -19 29 -42 34 -32 8 7 -17 6 -17 -10 -1 -16 16 -16 20 -1 60 13 31 14 45 6
53 -9 7 -10 6 -5 -3 4 -7 -2 -24 -13 -38 -14 -18 -21 -22 -21 -11 0 9 -7 14
-17 13 -21 -4 -19 -41 3 -63 20 -20 17 -25 -6 -11 -11 7 -20 16 -20 20 0 5 -7
8 -15 8 -8 0 -15 -4 -15 -8 0 -10 33 -42 43 -42 3 0 18 -11 33 -25 31 -29 18
-34 -17 -7 -13 10 -45 30 -70 45 l-46 26 -44 -39 -44 -39 33 -12 c30 -10 44
-29 22 -29 -5 0 -10 -4 -10 -10 0 -5 9 -10 21 -10 15 0 19 -5 15 -15 -4 -11 1
-15 19 -15 19 0 25 -5 26 -22 0 -13 3 -17 6 -10 9 23 25 12 19 -13 -4 -14 -2
-25 4 -25 5 0 10 7 10 15 0 18 16 20 26 3 4 -6 11 -25 15 -42 l7 -31 1 28 c1
34 24 32 29 -2 3 -21 4 -21 17 -5 12 17 13 16 20 -5 4 -13 2 -28 -5 -36 -15
-18 -6 -19 20 -3 15 10 22 10 31 1 9 -9 6 -13 -15 -19 -32 -8 -32 -10 -4 -36
l23 -19 -30 6 c-16 3 -34 7 -40 8 -5 1 -11 -2 -12 -8 -1 -5 6 -10 15 -9 10 0
26 -8 36 -18 17 -16 18 -18 3 -18 -22 0 -21 -6 3 -32 22 -24 27 -64 8 -70 -8
-3 -3 -10 12 -18 17 -9 22 -9 14 -1 -15 16 5 63 24 56 6 -2 12 0 12 5 0 16 22
11 36 -7 12 -17 13 -16 24 7 10 24 10 24 6 -7 -4 -22 -1 -33 10 -37 9 -4 14
-13 10 -21 -4 -11 3 -15 27 -16 18 0 26 -3 20 -6 -19 -7 -16 -20 7 -26 22 -6
28 -51 8 -63 -7 -4 -8 -3 -4 4 4 7 3 12 -3 12 -15 0 -23 -18 -11 -25 6 -4 8
-11 4 -16 -3 -5 -10 -7 -15 -3 -5 3 -7 9 -4 14 3 4 -2 13 -10 20 -17 14 -20
30 -4 30 5 0 7 -5 3 -12 -5 -8 -2 -9 10 -5 10 4 22 7 28 7 6 0 4 8 -6 19 -18
20 -71 18 -59 -3 3 -6 2 -7 -2 -3 -5 4 -10 15 -11 25 -2 9 -8 18 -13 20 -17 6
-13 20 7 25 9 3 2 5 -15 6 -31 1 -32 0 -23 -24 12 -30 -9 -35 -36 -8 -16 16
-16 16 -10 -5 4 -13 3 -22 -3 -22 -5 0 -13 9 -16 20 -4 11 -11 18 -16 14 -5
-3 -19 6 -30 20 -11 14 -29 26 -40 26 -12 0 -19 7 -19 20 0 11 -6 20 -14 20
-8 0 -16 6 -19 13 -3 9 -7 9 -20 -2 -15 -12 -17 -11 -17 8 0 29 -17 26 -22 -4
-4 -19 2 -32 25 -51 32 -27 50 -26 23 1 -37 37 -10 33 33 -5 18 -17 38 -30 42
-30 5 0 9 -9 9 -19 0 -27 10 -51 22 -51 8 0 58 -48 58 -56 0 -2 -8 0 -18 3
-15 6 -15 5 -3 -10 7 -9 20 -17 28 -17 8 0 12 -4 8 -9 -3 -5 4 -12 15 -16 11
-3 23 -17 26 -31 6 -22 46 -57 43 -37 -3 19 2 33 12 33 6 0 9 -6 6 -14 -3 -7
0 -13 6 -12 7 0 14 -3 15 -9 2 -5 8 -16 14 -22 15 -19 -2 -16 -24 4 -10 9 -18
12 -18 7 1 -14 49 -46 59 -39 5 3 13 1 16 -5 4 -6 15 -8 26 -5 12 4 19 2 17
-5 -2 -7 3 -15 11 -18 11 -4 13 2 8 26 -4 20 -1 34 8 42 11 9 13 7 9 -12 -2
-13 -2 -17 2 -10 8 17 24 15 24 -3 0 -8 -4 -15 -10 -15 -5 0 -14 -8 -19 -18
-8 -16 -6 -17 25 -14 27 3 32 7 24 17 -7 8 -7 16 -2 19 6 3 17 -5 26 -19 9
-14 23 -25 30 -25 9 0 12 -7 9 -20 -3 -11 -10 -20 -15 -20 -6 0 -7 7 -4 16 4
11 2 15 -8 11 -10 -4 -13 -1 -9 9 6 17 3 17 -37 0 -27 -11 -29 -14 -14 -20 42
-15 61 -32 59 -54 -1 -20 2 -22 21 -18 28 7 69 -27 60 -50 -3 -9 -1 -12 4 -9
6 3 10 1 10 -5 0 -6 5 -8 10 -5 6 3 10 0 10 -7 1 -15 122 -109 130 -101 3 3
-1 8 -7 10 -9 3 -10 10 -3 22 15 30 1 57 -41 75 -41 18 -49 38 -25 62 21 20
28 17 14 -5 -15 -24 4 -51 34 -51 11 0 28 -10 38 -22 18 -22 18 -22 30 37 7
33 17 63 24 67 7 5 7 8 -3 8 -8 0 -3 10 14 26 21 19 25 28 15 34 -9 6 -8 16 6
46 10 22 21 41 24 44 3 3 7 14 7 25 3 37 36 160 44 163 5 2 9 11 9 19 0 9 6
13 15 10 8 -4 27 7 45 24 24 24 33 29 44 20 11 -9 15 -9 19 1 2 7 7 11 10 8 4
-3 0 -19 -8 -34 -25 -48 -21 -50 34 -19 2 2 -2 9 -9 18 -10 12 -10 18 -1 29
10 11 8 17 -6 26 -15 10 -14 10 10 5 19 -4 27 -1 27 9 0 8 6 16 13 19 9 3 9 7
0 19 -7 8 -10 18 -6 21 13 13 23 7 23 -15 0 -21 2 -21 20 7 24 36 26 52 4 30
-15 -15 -18 -15 -32 -1 -14 14 -17 13 -28 -2 -12 -15 -13 -14 -14 11 0 24 3
27 20 22 15 -5 20 -2 21 12 1 10 4 5 8 -12 l6 -30 19 39 c15 31 16 43 7 58
-10 16 -8 18 16 17 16 0 22 -3 15 -6 -6 -2 -10 -9 -6 -14 9 -15 42 -10 53 8 5
10 13 14 17 10 12 -12 -10 -42 -30 -42 -25 0 -38 -28 -27 -57 9 -21 10 -21 11
-3 0 24 17 52 24 44 3 -3 -1 -27 -10 -52 -13 -39 -20 -47 -40 -47 -21 0 -23
-2 -12 -14 9 -10 15 -11 20 -2 4 6 8 -2 9 -19 l1 -30 10 30 c6 17 16 37 23 45
7 8 10 20 8 27 -6 15 24 73 38 73 6 0 9 7 6 15 -4 8 -2 17 3 20 6 4 10 2 10
-3 0 -5 13 -12 29 -14 17 -2 28 -1 25 4 -3 4 -12 8 -19 8 -11 0 -13 9 -9 33 5
29 4 30 -9 15 -9 -11 -28 -18 -49 -18 -28 0 -37 5 -43 23 l-8 22 -4 -22 c-5
-24 -27 -31 -39 -12 -10 16 7 28 51 34 22 3 46 8 53 10 8 3 11 -4 7 -23 l-5
-27 11 28 c11 27 29 37 29 15 0 -6 3 -8 7 -5 3 4 12 2 20 -4 16 -14 17 -1 3
37 -11 29 -4 47 9 25 7 -11 11 -9 21 9 14 25 6 38 -13 22 -7 -7 -24 -13 -37
-15 -12 -2 -28 -12 -34 -23 -6 -10 -21 -20 -34 -21 -19 -2 -21 -1 -10 17 7 10
22 24 34 31 12 6 25 23 29 36 7 29 -2 44 -14 24 -6 -9 -11 -10 -15 -2 -4 6
-12 11 -17 11 -6 0 -8 -4 -5 -9 9 -14 -13 -66 -34 -79 -16 -10 -20 -10 -20 0
0 8 -7 5 -15 -6 -8 -11 -15 -14 -15 -8 0 7 -6 12 -14 12 -24 0 -28 18 -10 45
l17 26 11 -22 c12 -24 28 -28 35 -8 2 8 -2 10 -13 6 -25 -10 -19 7 7 18 12 6
22 19 23 31 1 12 4 26 8 33 12 18 36 12 36 -9 0 -11 4 -20 8 -20 5 0 7 14 6
31 -2 25 6 38 39 67 22 21 48 45 58 56 21 22 52 15 42 -10 -4 -12 -3 -15 5
-10 7 4 12 18 12 32 0 18 -4 23 -12 18 -9 -5 -9 -2 1 9 16 21 17 21 19 2 1 -8
3 -22 4 -30 1 -16 28 -21 28 -5 0 6 -4 10 -10 10 -5 0 -10 11 -10 25 0 25 0
25 28 8 16 -10 22 -11 15 -3 -19 21 -16 35 4 19 11 -10 14 -10 9 -1 -5 8 -1
12 13 12 11 0 23 5 27 12 5 8 -3 9 -30 5 -22 -3 -34 -2 -31 4 4 5 17 9 30 9
24 0 55 23 55 41 0 5 7 9 16 9 9 0 12 5 8 12 -5 8 -2 9 9 5 10 -3 17 -2 17 3
0 6 -5 10 -12 10 -7 0 3 16 22 35 37 38 50 43 50 20 0 -18 29 -35 60 -35 6 0
10 -4 10 -10 0 -5 -13 -10 -29 -10 -17 0 -33 -5 -37 -11 -4 -8 -9 -7 -15 2 -7
11 -9 10 -9 -3 0 -21 11 -23 29 -5 11 10 12 8 7 -10 -4 -12 -2 -24 4 -28 5 -3
10 -1 10 5 0 23 30 42 55 36 20 -5 26 -2 31 18 3 14 3 30 -1 35 -3 6 0 11 7
11 10 0 9 3 -2 11 -13 9 -13 10 0 6 8 -2 16 -18 18 -35 2 -18 9 -32 15 -33 7
-1 1 -4 -12 -8 -55 -15 -54 -71 1 -71 l33 0 -45 -23 c-25 -12 -45 -26 -45 -32
1 -22 16 -32 46 -30 28 2 30 0 15 -11 -10 -7 -24 -10 -32 -7 -8 3 -14 -1 -14
-10 0 -9 -7 -23 -16 -31 -13 -14 -13 -16 -1 -16 8 0 17 7 21 15 7 19 17 19 42
0 16 -13 16 -14 2 -9 -10 3 -18 1 -18 -5 0 -6 -11 -11 -24 -11 -21 0 -24 -5
-24 -34 0 -28 4 -35 24 -39 28 -5 34 0 34 25 0 11 6 26 14 34 16 15 28 19 23
6 -1 -4 3 -8 8 -9 6 -2 10 6 10 16 0 24 10 35 25 26 9 -6 9 -10 -1 -16 -11 -6
-11 -11 -2 -20 10 -10 14 -9 19 4 3 9 10 14 15 11 5 -3 9 0 9 5 0 6 -4 11 -10
11 -5 0 -10 7 -10 16 0 8 -4 13 -9 10 -5 -4 -12 0 -14 6 -4 10 -6 10 -6 1 -1
-7 -6 -13 -12 -13 -5 0 -7 5 -3 12 5 8 2 9 -9 5 -12 -4 -17 -1 -17 9 0 10 6
14 15 10 8 -3 15 -1 15 4 0 6 -5 10 -12 10 -6 0 -8 3 -5 7 4 3 16 -2 27 -12
19 -18 20 -17 26 13 8 38 24 42 24 7 0 -14 -5 -25 -11 -25 -5 0 -7 -5 -4 -11
5 -7 13 -4 25 8 12 13 15 24 9 41 -5 12 -5 22 -1 22 4 0 1 4 -7 9 -10 7 -11
13 -2 30 13 23 36 19 27 -5 -3 -7 -1 -16 4 -19 6 -4 10 1 10 9 0 16 19 23 21
9 0 -5 2 -27 3 -51 3 -43 16 -72 16 -35 0 23 26 50 38 39 4 -4 -1 -13 -11 -20
-9 -7 -17 -23 -17 -35 0 -11 -4 -21 -10 -21 -5 0 -10 -9 -10 -20 0 -11 5 -20
10 -20 6 0 10 -7 10 -16 0 -14 -3 -14 -15 -4 -8 7 -15 21 -15 31 0 11 -5 19
-11 19 -5 0 -8 -4 -4 -9 3 -5 1 -12 -5 -16 -5 -3 -10 -11 -10 -16 0 -6 4 -8 8
-5 5 3 8 -20 8 -51 -1 -35 -6 -58 -14 -61 -6 -2 -13 0 -13 5 -6 38 -5 53 5 53
18 0 -17 20 -36 20 -11 0 -15 -6 -11 -19 3 -10 0 -22 -6 -25 -6 -4 -11 -18
-11 -32 0 -18 5 -24 21 -24 16 0 20 -5 16 -20 -7 -29 21 -26 32 4 10 23 41 44
41 26 0 -18 20 -10 21 8 0 11 2 12 6 4 5 -14 3 -16 67 43 34 32 42 28 22 -11
-12 -22 -13 -30 -3 -36 8 -5 9 -8 1 -8 -7 0 -15 -12 -18 -26 -9 -33 -36 -64
-36 -40 0 8 -4 18 -10 21 -6 4 -10 -5 -10 -19 0 -14 6 -26 13 -26 6 0 18 -4
26 -9 11 -7 11 -13 0 -32 -7 -13 -13 -36 -13 -52 -1 -15 -4 -26 -8 -25 -3 2
-18 -14 -32 -34 l-25 -37 20 -50 c10 -28 19 -58 19 -66 0 -20 -35 -54 -112
-108 -37 -26 -72 -55 -77 -65 -6 -9 -11 -12 -11 -7 0 6 -9 -3 -19 -18 -10 -16
-21 -28 -25 -28 -17 2 -24 -1 -52 -26 -17 -16 -51 -45 -76 -65 -76 -62 -128
-113 -128 -127 0 -7 -5 -9 -11 -6 -5 4 -37 -16 -69 -44 -32 -28 -60 -51 -63
-51 -2 0 -27 -22 -56 -49 -29 -27 -67 -60 -86 -73 -19 -12 -35 -30 -36 -38 0
-10 -3 -8 -9 5 -7 16 -9 17 -9 3 -1 -9 -25 -36 -55 -60 -30 -24 -55 -49 -55
-55 -1 -7 -10 -13 -21 -13 -11 0 -20 -5 -20 -11 0 -6 -7 -17 -15 -25 -8 -9
-15 -13 -15 -11 0 2 -16 -10 -35 -29 -19 -18 -35 -38 -35 -44 0 -6 -5 -10 -12
-8 -6 2 -19 -3 -28 -11 -10 -9 -32 -28 -51 -43 -19 -14 -58 -46 -88 -70 -29
-24 -62 -47 -72 -53 -31 -16 -27 -22 51 -85 25 -19 60 -49 80 -66 32 -28 148
-119 234 -184 162 -122 196 -153 183 -169 -10 -14 -10 -14 5 -3 14 12 21 10
47 -9 17 -13 31 -26 31 -31 0 -4 6 -8 13 -8 7 0 30 -16 51 -35 21 -19 34 -35
28 -35 -6 0 -17 6 -24 13 -38 36 -70 55 -88 50 -11 -3 -20 0 -20 6 0 5 8 8 18
4 14 -5 13 -3 -3 10 -18 15 -46 24 -33 11 3 -3 -5 -17 -17 -30 -18 -19 -30
-24 -47 -19 l-23 7 23 -17 c22 -16 23 -17 4 -33 -10 -10 -24 -26 -30 -37 -5
-11 -24 -28 -41 -38 -30 -18 -31 -18 -28 0 5 32 18 44 40 37 22 -6 22 -6 2 10
-11 9 -15 16 -10 15 25 -3 30 3 29 38 -1 21 -7 39 -14 41 -10 4 -11 -3 -7 -26
5 -25 3 -32 -13 -37 -11 -4 -20 -14 -21 -23 0 -10 -6 -5 -14 13 -13 29 -13 28
-12 -27 1 -46 -3 -61 -18 -73 -11 -8 -15 -15 -10 -15 6 -1 1 -5 -10 -10 -17
-7 -14 -9 13 -9 23 -1 31 3 26 11 -5 7 -3 8 6 3 7 -4 16 -2 22 6 7 11 8 9 6
-6 -2 -12 -16 -24 -36 -31 -18 -5 -29 -13 -25 -17 4 -4 8 -15 9 -25 3 -17 -13
-22 -80 -22 -38 -1 -26 -11 21 -20 37 -6 38 -6 15 -19 -13 -7 -31 -9 -40 -5
-9 4 -25 6 -34 5 -10 -1 -18 3 -18 8 0 6 4 11 9 11 5 0 13 9 16 21 5 16 12 19
35 14 16 -3 31 -2 35 4 3 7 -3 11 -16 11 -18 0 -19 2 -9 15 8 10 9 15 2 15 -6
0 -9 8 -5 17 3 10 -5 3 -18 -14 -13 -18 -30 -33 -36 -33 -7 0 -13 -5 -13 -11
0 -6 -7 -3 -16 5 -13 13 -13 18 -2 29 7 8 18 12 24 10 7 -2 20 7 30 19 11 13
26 22 35 20 8 -1 31 11 50 27 32 29 32 42 -1 21 -11 -7 -17 -5 -21 8 -6 14 -9
12 -19 -10 -7 -16 -17 -28 -22 -28 -5 0 -37 -16 -70 -35 -33 -19 -64 -32 -70
-29 -7 4 -8 2 -4 -5 4 -6 0 -14 -9 -17 -14 -6 -14 -8 2 -26 17 -19 17 -20 -7
-39 -14 -10 -29 -19 -35 -18 -5 0 -2 6 7 13 16 12 15 13 -11 12 -16 -1 -27 -3
-25 -5 5 -5 -106 -91 -117 -91 -5 0 -9 -7 -9 -15 0 -8 -7 -15 -15 -15 -8 0
-15 7 -15 15 0 8 5 15 10 15 6 0 10 5 10 12 0 6 -8 4 -19 -6 -11 -10 -17 -24
-14 -32 3 -9 -1 -14 -12 -14 -13 0 -16 6 -13 25 3 14 1 25 -4 25 -5 0 -6 5 -3
11 4 6 13 8 20 5 7 -2 16 1 18 8 3 8 19 18 36 24 25 9 31 8 31 -4 0 -7 4 -14
8 -14 5 0 8 10 8 22 -1 15 7 27 22 33 23 10 31 35 11 35 -6 0 -24 -9 -40 -21
-16 -11 -33 -17 -39 -14 -5 3 -10 2 -10 -4 0 -12 -49 -39 -92 -52 -23 -6 -28
-4 -28 9 0 14 -2 14 -9 3 -5 -8 -7 -21 -3 -29 3 -10 1 -13 -6 -8 -6 3 -13 2
-17 -4 -4 -6 -10 -8 -15 -5 -5 3 -11 -4 -15 -15 -3 -11 -12 -20 -18 -20 -7 0
-6 -4 3 -10 13 -8 12 -10 -2 -10 -10 0 -18 -4 -18 -10 0 -5 -6 -10 -13 -10 -8
0 -24 -9 -37 -20 -20 -17 -21 -21 -6 -35 13 -13 19 -14 36 -3 11 7 20 18 20
25 0 7 7 13 15 13 8 0 15 -6 15 -12 0 -9 3 -8 10 2 7 11 5 17 -8 22 -16 6 -16
7 1 7 9 1 17 8 17 17 0 8 4 13 9 9 5 -3 13 0 18 7 5 9 10 3 14 -17 l7 -30 1
32 c1 34 16 52 24 31 3 -8 6 -6 6 5 1 19 21 24 21 5 0 -26 -13 -58 -22 -58
-10 0 -38 -25 -38 -33 0 -3 15 -7 33 -9 33 -4 57 10 57 32 0 6 4 9 8 6 5 -3
18 4 30 14 23 22 42 26 42 10 0 -5 -6 -10 -13 -10 -6 0 -25 -13 -40 -30 -34
-36 -20 -47 36 -32 24 7 39 6 46 -1 7 -7 15 -7 25 2 8 7 17 8 20 3 3 -6 -1
-15 -9 -22 -8 -7 -15 -19 -15 -26 0 -8 -6 -14 -12 -15 -7 0 -21 -2 -31 -4 -9
-2 -15 1 -11 6 3 5 12 9 20 9 8 0 14 9 14 20 0 26 -31 26 -48 0 -12 -20 -12
-20 -32 0 -25 25 -53 26 -48 3 2 -10 10 -18 18 -19 30 -2 32 -4 19 -21 -12
-16 -12 -17 2 -6 10 8 19 9 25 3 9 -9 41 -17 74 -19 25 -2 -10 -21 -40 -22
-21 0 -22 -1 -6 -8 16 -6 14 -9 -15 -23 l-33 -17 27 -6 c14 -4 25 -12 24 -19
-1 -6 7 -9 17 -8 17 3 18 1 7 -12 -7 -8 -19 -12 -27 -9 -8 3 -14 0 -14 -6 0
-6 5 -11 11 -11 6 0 9 -7 5 -15 -4 -10 1 -15 14 -15 12 0 20 -7 20 -16 0 -10
5 -14 16 -10 8 3 13 2 10 -3 -3 -4 3 -16 14 -26 12 -11 20 -13 20 -6 0 8 5 8
20 -1 11 -7 20 -17 20 -22 0 -12 83 -86 97 -86 7 0 13 -4 13 -8 0 -12 79 -62
96 -62 9 0 12 -5 9 -10 -3 -6 5 -14 19 -20 14 -5 26 -14 26 -20 0 -5 7 -10 15
-10 8 0 20 -9 27 -20 7 -11 17 -20 23 -20 6 0 18 -9 27 -19 9 -11 37 -31 62
-46 25 -15 46 -33 46 -41 0 -8 6 -14 14 -14 7 0 19 -7 26 -15 7 -8 15 -13 19
-10 4 2 15 -7 25 -20 10 -13 23 -22 30 -19 7 3 18 -7 26 -21 7 -14 17 -25 20
-25 4 0 23 -13 41 -30 19 -16 45 -35 59 -42 14 -7 29 -19 33 -26 5 -7 12 -10
17 -7 5 3 15 -4 23 -15 7 -11 16 -18 18 -15 3 2 25 -14 49 -36 84 -76 149
-113 211 -117 62 -5 21 -30 333 209 82 63 183 140 225 171 42 32 81 61 86 66
6 4 57 43 115 87 58 43 107 80 109 81 2 2 -7 12 -20 23 -13 11 -21 20 -17 21
7 0 244 -179 451 -342 169 -132 230 -177 243 -178 7 0 14 -6 17 -14 3 -8 76
-68 163 -133 86 -65 190 -143 231 -175 123 -94 94 -88 516 -95 400 -7 438 -3
402 37 -17 18 -65 28 -160 32 -27 1 -56 6 -62 11 -8 5 -46 6 -95 1 -60 -5 -76
-9 -58 -15 16 -4 0 -7 -45 -7 -69 0 -165 -7 -217 -17 -16 -2 -28 -1 -28 3 2
24 255 188 266 171 3 -5 12 -9 20 -9 8 0 13 3 11 8 -3 4 14 6 36 4 37 -3 43 0
53 22 10 21 8 28 -8 46 -11 12 -16 25 -12 29 30 27 238 181 339 251 66 46 122
87 125 90 5 5 64 49 320 238 80 59 162 122 183 141 43 40 97 117 97 140 1 9
26 34 56 55 75 54 123 102 130 131 5 20 13 25 38 25 88 1 152 38 372 214 28
23 86 66 128 96 107 76 136 98 441 327 333 249 516 393 526 413 4 8 15 107 25
220 9 113 18 218 20 233 1 16 5 61 8 100 4 40 11 119 16 177 10 107 11 127 31
403 l11 158 -28 41 c-16 23 -54 63 -84 89 -86 75 -304 258 -436 366 -39 32
-130 108 -204 168 -73 61 -137 109 -142 108 -12 -4 -10 22 17 236 21 172 22
198 10 222 -13 24 -11 50 15 231 63 434 123 924 117 949 -7 28 -108 130 -232
235 -44 37 -123 106 -175 153 -52 48 -221 194 -375 326 -154 131 -293 251
-310 266 -120 107 -274 238 -291 247 -11 6 -47 14 -81 17 -73 9 -75 6 -98
-107 -8 -40 -17 -79 -18 -87 -2 -7 -11 -17 -20 -23 -9 -5 -17 -14 -17 -20 0
-7 5 -6 15 2 12 10 15 10 15 -3 0 -25 -19 -67 -30 -67 -13 0 -72 -52 -66 -58
3 -2 21 6 40 18 41 25 41 26 20 -55 -9 -33 -17 -71 -18 -85 -13 -112 -24 -162
-34 -156 -4 2 -7 -16 -7 -40 2 -70 -18 -152 -40 -168 -11 -9 -32 -16 -46 -16
-15 0 -37 -9 -50 -21 -19 -17 -20 -20 -5 -15 10 4 25 1 32 -5 11 -9 14 -8 14
5 0 9 7 16 15 16 8 0 15 -4 15 -10 0 -5 5 -10 11 -10 6 0 8 7 5 16 -3 8 -2 12
4 9 19 -12 11 -44 -12 -47 -12 -2 -23 -9 -26 -17 -3 -9 1 -11 16 -7 17 6 21 3
19 -14 -1 -14 -9 -20 -27 -21 -23 -2 -23 -2 -2 -6 12 -2 22 -9 22 -15 0 -13
-30 -78 -44 -97 -6 -7 -11 -21 -11 -30 0 -11 -8 -15 -25 -14 -14 1 -19 -1 -12
-4 10 -4 8 -9 -7 -20 -12 -8 -26 -11 -33 -7 -7 4 -8 3 -4 -4 4 -8 -3 -16 -19
-22 -38 -14 -53 -12 -31 5 17 13 17 15 3 21 -9 3 -20 3 -26 0 -5 -4 -12 -2
-16 4 -9 14 23 24 38 12 12 -9 57 1 57 13 0 4 -4 3 -10 0 -5 -3 -10 -2 -10 3
0 11 38 25 59 22 7 -1 10 3 7 9 -4 5 4 17 16 25 28 20 18 20 -52 1 -54 -14
-77 -12 -50 5 24 15 -3 11 -30 -5 -34 -19 -43 -18 -31 3 9 17 11 24 11 42 0 6
10 10 23 9 21 0 21 -1 2 -9 -19 -8 -19 -9 2 -9 12 -1 23 2 25 7 2 4 24 18 51
32 26 13 47 31 47 38 0 10 -7 8 -27 -6 -51 -35 -57 -37 -50 -18 6 14 3 16 -16
11 -21 -6 -21 -5 -2 6 11 7 22 15 25 18 12 15 61 41 69 37 4 -3 8 1 8 8 0 18
-30 5 -102 -41 -27 -18 -53 -33 -57 -33 -5 0 -8 -9 -8 -20 0 -13 -12 -25 -36
-35 -46 -19 -50 -19 -33 2 12 14 12 15 0 9 -10 -7 -12 -3 -6 13 l7 22 -41 -21
c-23 -11 -41 -17 -41 -13 0 5 18 16 40 26 23 11 37 23 34 31 -3 7 7 19 21 26
l26 14 -23 9 c-22 9 -20 11 27 33 54 26 75 30 75 14 0 -5 -5 -10 -12 -10 -6 0
-9 -2 -6 -5 3 -3 16 -1 29 4 13 5 18 10 10 10 -8 1 -11 8 -8 21 6 24 -1 25
-27 5 -14 -11 -22 -12 -27 -4 -8 13 -49 -5 -49 -21 0 -6 -9 -10 -20 -10 -11 0
-20 3 -20 6 0 11 34 33 51 34 9 0 22 7 29 15 10 12 9 15 -7 15 -10 0 -29 -8
-43 -17 -22 -16 -23 -16 -16 2 6 18 6 18 -12 2 -10 -9 -24 -17 -30 -17 -15 0
-72 -56 -72 -71 0 -6 9 -9 20 -6 28 7 25 -2 -5 -13 -25 -10 -33 -34 -15 -45
16 -10 -8 -45 -30 -45 -13 0 -18 -6 -15 -18 3 -15 -2 -17 -27 -14 -19 3 -25 7
-18 12 16 10 23 77 9 86 -5 3 -21 -2 -35 -11 -14 -9 -31 -14 -37 -11 -7 2 -4
5 6 5 21 1 22 17 1 25 -13 5 -14 9 -4 21 7 8 17 12 23 8 6 -3 7 -1 3 5 -4 7
-1 12 9 12 9 0 14 4 11 8 -3 4 12 17 32 27 60 31 108 65 92 65 -21 -1 -96 -36
-104 -49 -4 -6 -12 -11 -18 -11 -6 0 -5 7 3 17 12 15 12 16 -8 11 -12 -3 -24
-1 -26 5 -2 8 -10 6 -21 -6 -10 -9 -14 -17 -9 -17 4 0 -1 -6 -11 -12 -15 -8
-21 -7 -28 5 -4 9 -16 23 -25 32 -12 12 -13 19 -4 28 17 17 13 27 -9 27 -10 0
-31 -12 -46 -27 -32 -32 -89 -35 -133 -7 -37 25 -591 487 -659 551 -7 7 -75
63 -150 125 -98 81 -144 113 -165 114 -16 1 -31 -4 -34 -12 -8 -21 -30 -7
-161 98 -102 81 -129 98 -158 98 -19 0 -35 -3 -36 -7z m-31 -129 c-3 -3 -12
-4 -19 -1 -8 3 -5 6 6 6 11 1 17 -2 13 -5z m-62 -246 c-4 -18 -11 -37 -15 -43
-5 -5 -11 -27 -15 -48 -7 -38 -19 -54 -29 -39 -8 13 5 52 16 46 5 -3 6 5 2 20
-4 19 -2 28 10 32 9 3 16 16 16 28 0 21 7 36 17 36 3 0 1 -15 -2 -32z m-79 6
c-3 -9 -6 -21 -6 -27 0 -7 -5 -4 -11 6 -11 18 -5 37 13 37 5 0 7 -7 4 -16z
m-29 -86 c-3 -7 -5 -2 -5 12 0 14 2 19 5 13 2 -7 2 -19 0 -25z m-16 -45 c-12
-20 -14 -14 -5 12 4 9 9 14 11 11 3 -2 0 -13 -6 -23z m-11 -56 c0 -5 -4 -5
-10 -2 -5 3 -10 14 -10 23 0 15 2 15 10 2 5 -8 10 -19 10 -23z m76 17 c-3 -9
-6 -21 -7 -27 0 -7 -4 -3 -8 8 -9 22 -5 35 11 35 5 0 7 -7 4 -16z m-14 -66
c-6 -6 -15 -8 -19 -4 -4 4 -1 11 7 16 19 12 27 3 12 -12z m-9 -34 c-6 -17 -33
-19 -33 -1 0 7 9 13 19 14 14 1 18 -3 14 -13z m-72 -35 c-6 -16 -10 -18 -10
-7 -1 22 12 55 16 42 2 -6 -1 -22 -6 -35z m49 -18 c0 -10 -3 -21 -7 -25 -5 -4
-8 -17 -9 -29 -3 -70 -28 -188 -42 -199 -14 -11 -15 -10 -8 7 4 11 10 38 12
60 4 36 17 112 31 187 6 30 23 29 23 -1z m-70 -5 c0 -3 -4 -8 -10 -11 -5 -3
-10 -1 -10 4 0 6 5 11 10 11 6 0 10 -2 10 -4z m7 -38 c-3 -8 -6 -5 -6 6 -1 11
2 17 5 13 3 -3 4 -12 1 -19z m-12 -65 c-11 -61 -13 -77 -14 -101 -1 -13 -5
-21 -10 -18 -5 3 -5 26 0 53 5 25 9 51 8 57 -3 27 2 46 12 46 8 0 9 -12 4 -37z
m-38 -35 c-3 -7 -5 -2 -5 12 0 14 2 19 5 13 2 -7 2 -19 0 -25z m23 -123 c0
-33 -15 -33 -16 0 -1 14 2 25 7 25 5 0 9 -11 9 -25z m-83 -47 c-3 -8 -6 -5 -6
6 -1 11 2 17 5 13 3 -3 4 -12 1 -19z m2238 -48 c-3 -5 -12 -10 -18 -10 -7 0
-6 4 3 10 19 12 23 12 15 0z m-2141 -86 c9 -3 16 -11 16 -16 0 -6 -6 -5 -15 2
-8 6 -20 8 -26 4 -8 -4 -9 -3 -5 4 8 14 9 14 30 6z m2266 -18 c0 -3 -4 -8 -10
-11 -5 -3 -10 -1 -10 4 0 6 5 11 10 11 6 0 10 -2 10 -4z m-125 -46 c-3 -5 -12
-10 -18 -10 -7 0 -6 4 3 10 19 12 23 12 15 0z m-2225 -4 c0 -2 -7 -7 -16 -10
-8 -3 -12 -2 -9 4 6 10 25 14 25 6z m2320 -10 c0 -3 -13 -14 -30 -26 -30 -21
-77 -20 -64 2 4 7 9 6 14 -2 6 -10 15 -8 35 9 26 19 45 27 45 17z m-100 -56
c0 -4 -6 -10 -14 -13 -10 -4 -12 0 -9 14 5 18 23 18 23 -1z m75 -9 c-3 -6 -11
-11 -16 -11 -5 0 -4 6 3 14 14 16 24 13 13 -3z m-2315 -11 c0 -5 -4 -10 -10
-10 -5 0 -10 5 -10 10 0 6 5 10 10 10 6 0 10 -4 10 -10z m58 -21 c-6 -4 -8
-12 -4 -18 5 -7 1 -9 -8 -5 -19 7 -21 24 -3 25 10 0 10 2 0 6 -7 2 -13 9 -13
14 0 5 9 4 20 -3 12 -8 15 -15 8 -19z m2212 7 c0 -2 -8 -10 -17 -17 -16 -13
-17 -12 -4 4 13 16 21 21 21 13z m305 -16 c-3 -5 -12 -10 -18 -10 -7 0 -6 4 3
10 19 12 23 12 15 0z m-2575 -20 c0 -5 -4 -10 -10 -10 -5 0 -10 5 -10 10 0 6
5 10 10 10 6 0 10 -4 10 -10z m97 -15 c0 -8 -4 -15 -9 -15 -10 0 -11 14 -1 23
9 10 10 9 10 -8z m50 -27 c-3 -8 -6 -5 -6 6 -1 11 2 17 5 13 3 -3 4 -12 1 -19z
m2169 7 c-11 -8 -22 -12 -25 -9 -6 6 19 24 34 24 6 -1 1 -7 -9 -15z m-2384
-25 c-5 -37 -22 -50 -22 -18 0 19 16 48 25 48 1 0 0 -14 -3 -30z m69 -13 c-9
-9 -14 -8 -21 3 -15 24 -11 36 5 14 14 -18 14 -18 16 6 1 19 2 20 6 6 3 -10 0
-23 -6 -29z m2379 28 c0 -8 -2 -15 -4 -15 -2 0 -6 7 -10 15 -3 8 -1 15 4 15 6
0 10 -7 10 -15z m-2420 -25 c0 -5 -2 -10 -4 -10 -3 0 -8 5 -11 10 -3 6 -1 10
4 10 6 0 11 -4 11 -10z m-110 -15 c0 -17 16 -20 25 -5 3 6 10 10 15 10 17 0
-14 -59 -37 -69 -27 -13 -29 -8 -6 15 16 16 16 16 -5 10 -13 -5 -22 -3 -22 3
0 6 5 11 11 11 6 0 8 9 4 20 -4 11 -2 20 4 20 6 0 11 -7 11 -15z m-50 -25 c0
-5 -5 -10 -11 -10 -5 0 -7 5 -4 10 3 6 8 10 11 10 2 0 4 -4 4 -10z m2742 -65
c-2 -41 -7 -75 -11 -75 -3 0 -5 -18 -3 -40 2 -22 0 -40 -5 -40 -5 0 -8 -18 -6
-41 1 -28 -3 -42 -13 -46 -9 -3 -11 -9 -6 -12 15 -10 -52 -291 -69 -291 -5 0
-7 -11 -3 -25 4 -18 3 -25 -6 -23 -7 2 -15 -3 -17 -9 -3 -7 1 -13 7 -13 7 0 9
-8 5 -20 -4 -11 -2 -20 4 -20 6 0 11 -5 11 -10 0 -6 -10 -9 -22 -7 -13 2 -17
2 -11 0 14 -5 11 -44 -6 -102 -6 -18 -10 -36 -9 -40 2 -8 -13 -63 -20 -76 -4
-5 -5 -25 -3 -43 3 -38 -16 -92 -32 -92 -6 0 -7 -3 -4 -6 3 -4 0 -16 -8 -27
-10 -15 -11 -25 -3 -40 6 -13 7 -22 0 -26 -23 -14 -77 -58 -97 -77 -12 -12
-31 -25 -43 -28 -12 -4 -22 -14 -22 -22 0 -8 -8 -14 -17 -14 -15 0 -16 -2 -3
-10 13 -8 12 -10 -2 -10 -16 0 -39 -15 -73 -47 -8 -7 -18 -13 -24 -13 -6 0
-11 -7 -11 -15 0 -8 -7 -15 -14 -15 -8 0 -27 -11 -42 -25 -15 -14 -32 -25 -38
-25 -6 0 -4 -5 4 -11 12 -8 11 -9 -6 -5 -15 5 -32 -5 -65 -39 -24 -25 -47 -45
-51 -45 -5 0 -16 -8 -26 -17 -32 -31 -72 -63 -78 -63 -3 0 -20 -15 -37 -32
-35 -36 -74 -68 -82 -68 -7 0 -45 -39 -45 -46 0 -10 -28 -33 -33 -28 -3 4 -12
1 -19 -5 -74 -62 -186 -149 -200 -154 -21 -8 -30 15 -14 39 6 11 13 33 15 49
2 17 10 34 18 38 11 7 11 12 3 22 -9 11 -7 21 11 46 21 29 21 33 6 44 -18 13
-23 35 -7 35 5 0 7 7 4 15 -3 8 4 31 16 51 15 27 18 39 10 44 -9 5 -9 9 -1 14
6 4 9 26 6 53 -3 40 0 49 25 75 22 21 25 28 11 23 -16 -5 -18 -1 -15 27 2 18
9 37 14 42 6 6 10 20 10 33 0 14 16 35 47 60 25 21 54 45 64 55 9 9 20 14 23
11 3 -4 6 -2 6 4 0 6 18 23 40 38 22 15 40 34 40 41 0 8 5 14 10 14 26 0 119
82 139 122 11 24 41 66 66 93 24 28 45 56 45 63 0 6 7 12 15 12 8 0 14 4 12 8
-3 13 55 82 65 76 4 -3 8 -1 8 5 0 11 60 73 61 63 0 -4 5 4 10 18 8 18 12 21
18 11 6 -9 11 -10 15 -2 4 6 3 11 -3 11 -6 0 -8 7 -5 15 4 8 9 13 13 12 3 -2
16 7 28 20 12 13 18 23 13 23 -16 0 -12 47 4 53 9 4 13 15 10 29 -3 18 -3 19
4 5 6 -15 10 -15 23 -5 25 20 60 75 57 90 -2 7 7 14 19 16 14 2 20 8 16 17 -3
10 5 18 22 25 14 5 23 14 20 20 -3 5 -1 10 5 10 17 0 38 25 46 54 5 21 11 25
26 20 14 -4 18 -2 14 5 -4 6 0 25 8 43 9 17 16 44 16 60 0 18 4 27 10 23 17
-10 60 23 60 45 0 13 7 20 20 20 12 0 20 7 20 16 0 10 -6 14 -15 10 -8 -3 -15
-1 -15 4 0 6 7 10 15 10 8 0 15 5 15 10 0 6 3 10 8 10 4 0 6 -34 4 -75z
m-2552 49 c0 -8 -4 -12 -10 -9 -5 3 -10 10 -10 16 0 5 5 9 10 9 6 0 10 -7 10
-16z m51 -14 c11 0 12 -20 1 -36 -4 -6 -18 -14 -32 -18 l-25 -7 25 19 c20 17
22 23 11 36 -7 9 -9 21 -5 28 7 10 9 9 12 -4 2 -10 8 -18 13 -18z m-85 8 c4
-7 3 -8 -4 -4 -15 9 -15 -4 -2 -41 9 -25 9 -26 -4 -10 -8 10 -16 14 -17 9 -2
-5 -15 -12 -29 -16 -21 -6 -23 -5 -10 6 8 7 23 25 33 41 20 30 23 32 33 15z
m200 -36 c-23 -23 -31 -8 -9 17 10 13 19 17 22 10 2 -6 -4 -18 -13 -27z m-50
-10 c-10 -11 -16 -12 -16 -4 0 7 5 12 10 12 6 0 10 8 11 18 0 11 2 13 6 4 3
-8 -2 -21 -11 -30z m134 -6 c0 -8 -4 -18 -10 -21 -5 -3 -10 3 -10 14 0 12 5
21 10 21 6 0 10 -6 10 -14z m-173 -18 c-3 -8 -6 -5 -6 6 -1 11 2 17 5 13 3 -3
4 -12 1 -19z m440 -6 c-10 -10 -17 -24 -17 -30 0 -7 -10 -12 -22 -12 -21 1
-21 2 -5 11 9 6 15 14 12 19 -3 5 4 11 15 15 11 3 20 11 20 17 0 6 3 8 7 5 3
-4 -1 -15 -10 -25z m-142 8 c3 -5 1 -10 -4 -10 -6 0 -11 5 -11 10 0 6 2 10 4
10 3 0 8 -4 11 -10z m2210 -47 c-7 -47 -12 -61 -18 -52 -8 10 6 99 15 99 7 0
8 -17 3 -47z m-2658 -17 c-4 -9 -12 -16 -18 -16 -8 0 -8 4 1 15 6 8 8 20 4 27
-5 10 -4 10 6 1 7 -6 10 -19 7 -27z m197 3 c-9 -10 -22 -19 -28 -19 -6 0 -3 5
7 11 9 5 17 17 17 25 0 8 5 12 11 9 7 -5 4 -14 -7 -26z m256 10 c0 -5 -4 -9
-10 -9 -5 0 -10 7 -10 16 0 8 5 12 10 9 6 -3 10 -10 10 -16z m-140 -43 c-10
-31 -55 -74 -66 -63 -3 2 10 21 28 41 18 21 34 42 34 47 5 32 6 34 11 22 2 -7
0 -28 -7 -47z m-160 14 c0 -17 -52 -70 -68 -70 -12 0 -8 9 16 31 17 16 32 37
32 45 0 8 5 12 10 9 6 -3 10 -10 10 -15z m255 10 c3 -5 2 -10 -4 -10 -5 0 -13
5 -16 10 -3 6 -2 10 4 10 5 0 13 -4 16 -10z m95 -25 c0 -19 -4 -23 -17 -18
-12 5 -15 2 -10 -10 3 -9 2 -17 -3 -17 -6 0 -10 5 -10 12 0 6 -7 3 -15 -8 -14
-19 -14 -19 -15 1 0 13 11 25 29 33 21 9 28 18 24 29 -4 11 -2 14 5 9 7 -4 12
-18 12 -31z m70 10 c-14 -17 -30 -20 -30 -6 0 5 8 12 18 14 9 3 19 5 21 6 2 0
-2 -6 -9 -14z m-721 -1 c17 -4 28 -10 26 -15 -3 -4 -12 -6 -20 -2 -8 3 -15 0
-15 -6 0 -13 -70 -44 -79 -35 -3 3 1 11 10 17 8 7 18 20 22 30 7 19 11 20 56
11z m351 -34 c0 -5 -4 -10 -10 -10 -5 0 -10 5 -10 10 0 6 5 10 10 10 6 0 10
-4 10 -10z m164 -32 c-4 -6 -10 -5 -15 3 -14 22 -10 33 6 19 8 -7 12 -17 9
-22z m53 26 c-3 -3 -12 -4 -19 -1 -8 3 -5 6 6 6 11 1 17 -2 13 -5z m117 -2 c3
-5 -2 -21 -10 -36 -7 -16 -14 -35 -14 -42 0 -16 -16 -19 -25 -4 -7 11 7 41 21
43 5 1 9 12 9 25 -1 22 9 29 19 14z m2110 -39 c-10 -57 -26 -87 -19 -38 2 22
5 48 5 58 0 9 5 17 10 17 7 0 8 -14 4 -37z m-2304 7 c0 -5 -5 -10 -11 -10 -5
0 -7 5 -4 10 3 6 8 10 11 10 2 0 4 -4 4 -10z m130 -10 c0 -11 -2 -20 -4 -20
-2 0 -6 9 -9 20 -3 11 -1 20 4 20 5 0 9 -9 9 -20z m204 -13 c-3 -9 -10 -17
-15 -17 -12 0 -11 17 1 25 6 4 7 12 4 18 -5 9 -4 9 5 1 6 -6 9 -18 5 -27z
m-546 3 c-7 -10 -14 -18 -15 -16 -6 6 9 36 18 36 5 0 4 -9 -3 -20z m303 -22
c-9 -10 -51 2 -51 14 0 5 4 7 9 3 6 -3 16 1 23 9 11 12 14 12 19 -3 4 -9 4
-19 0 -23z m-631 12 c0 -5 -9 -14 -20 -20 -22 -12 -27 -1 -8 18 14 14 28 16
28 2z m981 -21 c-26 -21 -41 -24 -41 -8 0 5 4 8 9 5 4 -3 16 3 26 14 10 11 21
17 24 14 3 -3 -5 -14 -18 -25z m-241 6 c-7 -9 -15 -13 -17 -11 -7 7 7 26 19
26 6 0 6 -6 -2 -15z m-607 -14 c17 -6 17 -8 -2 -25 -21 -19 -21 -19 -21 2 0
11 -6 23 -12 25 -9 4 -8 5 2 6 8 0 23 -4 33 -8z m-43 -27 c0 -8 -4 -14 -9 -14
-6 0 -9 9 -8 19 1 22 17 18 17 -5z m460 14 c0 -4 -7 -8 -15 -8 -8 0 -15 4 -15
8 0 5 7 9 15 9 8 0 15 -4 15 -9z m363 -3 c-3 -9 -8 -14 -10 -11 -3 3 -2 9 2
15 9 16 15 13 8 -4z m-601 -17 c-7 -7 -12 -8 -12 -2 0 14 12 26 19 19 2 -3 -1
-11 -7 -17z m367 -2 c9 -11 7 -15 -7 -18 -12 -4 -18 1 -18 13 0 22 9 24 25 5z
m131 -7 c0 -14 -6 -19 -17 -17 -10 1 -24 -1 -30 -5 -7 -5 -13 -5 -13 0 0 12
16 35 25 35 4 0 12 -6 16 -14 7 -10 9 -9 9 5 0 9 2 17 5 17 3 0 5 -9 5 -21z
m65 11 c-3 -5 -12 -10 -18 -10 -7 0 -6 4 3 10 19 12 23 12 15 0z m-845 -10 c0
-5 -5 -10 -11 -10 -5 0 -7 5 -4 10 3 6 8 10 11 10 2 0 4 -4 4 -10z m450 -7 c0
-14 -2 -15 -9 -4 -7 11 -11 10 -20 -5 -8 -15 -10 -16 -11 -3 0 19 9 29 27 29
7 0 13 -8 13 -17z m71 -16 c-8 -8 -11 -7 -11 4 0 20 13 34 18 19 3 -7 -1 -17
-7 -23z m-886 3 c3 -5 1 -10 -4 -10 -6 0 -11 5 -11 10 0 6 2 10 4 10 3 0 8 -4
11 -10z m1131 -22 c-12 -38 -16 -69 -8 -64 5 3 16 0 25 -7 14 -10 14 -14 1
-25 -11 -10 -14 -10 -14 2 0 18 -22 26 -49 19 -12 -3 -21 -1 -21 6 0 5 6 8 14
5 8 -3 16 3 19 15 3 12 0 21 -6 21 -7 0 -1 9 13 20 30 23 30 24 26 8z m-216
-5 c0 -6 -28 -33 -33 -33 -3 0 -3 8 0 18 4 15 33 28 33 15z m-860 -13 c0 -5
-7 -7 -15 -4 -8 4 -15 8 -15 10 0 2 7 4 15 4 8 0 15 -4 15 -10z m492 -40 c-8
-21 -9 -22 -16 -5 -4 11 -2 22 6 26 17 11 20 6 10 -21z m635 -2 c-3 -7 -5 -2
-5 12 0 14 2 19 5 13 2 -7 2 -19 0 -25z m-237 10 c0 -7 -5 -20 -10 -28 -8 -12
-10 -9 -10 13 0 15 5 27 10 27 6 0 10 -6 10 -12z m70 2 c0 -5 -5 -10 -11 -10
-5 0 -7 5 -4 10 3 6 8 10 11 10 2 0 4 -4 4 -10z m2130 0 c0 -5 -4 -10 -10 -10
-5 0 -10 5 -10 10 0 6 5 10 10 10 6 0 10 -4 10 -10z m-1873 -16 c-3 -3 -12 -4
-19 -1 -8 3 -5 6 6 6 11 1 17 -2 13 -5z m-241 -36 c0 -10 -4 -18 -8 -18 -4 0
-8 5 -8 11 0 5 -4 7 -10 4 -5 -3 -10 1 -10 9 0 8 8 14 18 13 10 0 18 -9 18
-19z m44 -3 c-7 -9 -15 -13 -17 -11 -7 7 7 26 19 26 6 0 6 -6 -2 -15z m2060
11 c0 -3 -4 -8 -10 -11 -5 -3 -10 -1 -10 4 0 6 5 11 10 11 6 0 10 -2 10 -4z
m-2150 -15 c0 -5 -7 -12 -16 -15 -24 -9 -28 -7 -14 9 14 17 30 20 30 6z m-730
-11 c0 -5 -4 -10 -10 -10 -5 0 -10 5 -10 10 0 6 5 10 10 10 6 0 10 -4 10 -10z
m217 -22 c-3 -8 -6 -5 -6 6 -1 11 2 17 5 13 3 -3 4 -12 1 -19z m-567 8 c0 -3
-4 -8 -10 -11 -5 -3 -10 -1 -10 4 0 6 5 11 10 11 6 0 10 -2 10 -4z m1103 -59
c-3 -20 -10 -37 -15 -37 -5 0 -6 10 -3 21 5 16 4 19 -6 14 -7 -5 -4 3 7 17 10
14 20 25 21 24 1 -1 0 -19 -4 -39z m2102 24 c3 -5 1 -12 -5 -16 -5 -3 -10 1
-10 9 0 18 6 21 15 7z m-3118 -43 c-3 -8 -6 -5 -6 6 -1 11 2 17 5 13 3 -3 4
-12 1 -19z m1238 12 c-3 -5 -11 -10 -16 -10 -6 0 -7 5 -4 10 3 6 11 10 16 10
6 0 7 -4 4 -10z m-137 -21 c-20 -13 -28 -11 -22 5 3 8 12 12 21 9 12 -5 12 -7
1 -14z m1993 -6 c-8 -15 -10 -15 -11 -2 0 17 10 32 18 25 2 -3 -1 -13 -7 -23z
m-3141 7 c0 -5 -4 -10 -10 -10 -5 0 -10 5 -10 10 0 6 5 10 10 10 6 0 10 -4 10
-10z m1075 -19 c-3 -6 -11 -11 -17 -11 -6 0 -6 6 2 15 14 17 26 13 15 -4z
m-355 5 c0 -3 -4 -8 -10 -11 -5 -3 -10 -1 -10 4 0 6 5 11 10 11 6 0 10 -2 10
-4z m-793 -12 c-3 -3 -12 -4 -19 -1 -8 3 -5 6 6 6 11 1 17 -2 13 -5z m1187 -9
c-25 -19 -35 -19 -28 0 4 8 16 15 27 15 20 0 20 0 1 -15z m263 9 c-3 -3 -12
-4 -19 -1 -8 3 -5 6 6 6 11 1 17 -2 13 -5z m-1547 -19 c7 -9 9 -19 5 -23 -4
-4 -10 -1 -12 6 -3 6 -14 12 -26 12 -18 0 -19 2 -7 10 20 13 25 12 40 -5z
m1417 -1 c-3 -3 -12 -4 -19 -1 -8 3 -5 6 6 6 11 1 17 -2 13 -5z m573 -8 c0 -3
-4 -8 -10 -11 -5 -3 -10 -1 -10 4 0 6 5 11 10 11 6 0 10 -2 10 -4z m-420 -28
c0 -16 -3 -19 -11 -11 -6 6 -8 16 -5 22 11 17 16 13 16 -11z m-652 -12 c-7 -8
-15 -12 -17 -11 -5 6 10 25 20 25 5 0 4 -6 -3 -14z m-892 -13 c-10 -10 -46
-11 -52 -1 -3 4 9 8 27 8 18 0 29 -3 25 -7z m84 -3 c0 -5 -5 -10 -11 -10 -5 0
-7 5 -4 10 3 6 8 10 11 10 2 0 4 -4 4 -10z m-46 -15 c3 -8 12 -15 21 -15 8 0
15 -4 15 -10 0 -17 -15 -11 -40 15 -13 14 -19 25 -13 25 6 0 13 -7 17 -15z
m1247 -38 c-11 -10 -12 -8 -6 11 4 14 2 22 -5 22 -6 0 -8 5 -4 12 5 8 11 5 17
-10 8 -16 7 -26 -2 -35z m-1371 33 c0 -5 -4 -10 -10 -10 -5 0 -10 5 -10 10 0
6 5 10 10 10 6 0 10 -4 10 -10z m1491 -33 c-10 -9 -11 -8 -5 6 3 10 9 15 12
12 3 -3 0 -11 -7 -18z m491 -9 c-7 -7 -12 -8 -12 -2 0 14 12 26 19 19 2 -3 -1
-11 -7 -17z m-1962 -8 c18 -12 2 -12 -25 0 -13 6 -15 9 -5 9 8 0 22 -4 30 -9z
m60 -6 c0 -14 -3 -14 -15 -4 -8 7 -15 14 -15 16 0 2 7 4 15 4 8 0 15 -7 15
-16z m40 6 c0 -5 -4 -10 -10 -10 -5 0 -10 5 -10 10 0 6 5 10 10 10 6 0 10 -4
10 -10z m327 4 c-3 -3 -12 -4 -19 -1 -8 3 -5 6 6 6 11 1 17 -2 13 -5z m1793
-14 c-6 -11 -20 -25 -32 -31 -21 -11 -21 -10 3 19 27 35 45 42 29 12z m-575 0
c3 -5 1 -10 -4 -10 -6 0 -11 5 -11 10 0 6 2 10 4 10 3 0 8 -4 11 -10z m-1715
-15 l25 -14 -32 -1 c-23 0 -33 5 -33 15 0 18 8 18 40 0z m984 -1 c3 -8 2 -12
-4 -9 -6 3 -10 10 -10 16 0 14 7 11 14 -7z m-1044 -4 c0 -5 -4 -10 -9 -10 -6
0 -13 5 -16 10 -3 6 1 10 9 10 9 0 16 -4 16 -10z m305 -10 c3 -5 -1 -10 -9
-10 -9 0 -16 5 -16 10 0 6 4 10 9 10 6 0 13 -4 16 -10z m1350 -9 c3 -5 1 -12
-5 -16 -5 -3 -10 1 -10 9 0 18 6 21 15 7z m-1405 -16 c7 -9 8 -15 2 -15 -5 0
-12 7 -16 15 -3 8 -4 15 -2 15 2 0 9 -7 16 -15z m-154 -10 c-11 -8 -29 -15
-40 -15 -12 0 -31 -3 -43 -6 -17 -5 -23 -2 -23 9 0 12 13 17 48 20 26 2 54 4
62 5 11 1 10 -3 -4 -13z m227 0 c-3 -9 -8 -14 -10 -11 -3 3 -2 9 2 15 9 16 15
13 8 -4z m47 0 c11 -13 8 -15 -15 -15 -23 0 -26 2 -15 15 7 8 14 15 15 15 1 0
8 -7 15 -15z m1410 -5 c0 -5 -5 -10 -11 -10 -5 0 -7 5 -4 10 3 6 8 10 11 10 2
0 4 -4 4 -10z m400 -15 c-7 -9 -15 -13 -19 -10 -3 3 1 10 9 15 21 14 24 12 10
-5z m-2065 -15 c-3 -5 -11 -10 -16 -10 -6 0 -7 5 -4 10 3 6 11 10 16 10 6 0 7
-4 4 -10z m105 -5 c21 -25 1 -31 -22 -7 -18 18 -19 22 -6 22 8 0 21 -7 28 -15z
m138 -11 c-8 -7 -78 -11 -78 -3 0 4 15 9 33 11 31 3 52 0 45 -8z m-548 -24 c0
-5 -5 -10 -11 -10 -5 0 -7 5 -4 10 3 6 8 10 11 10 2 0 4 -4 4 -10z m290 0 c0
-5 -4 -10 -9 -10 -6 0 -13 5 -16 10 -3 6 1 10 9 10 9 0 16 -4 16 -10z m300 1
c0 -9 -34 -21 -62 -21 -31 0 -19 19 15 23 17 2 35 5 40 5 4 1 7 -2 7 -7z m500
-7 c0 -14 -3 -14 -15 -4 -8 7 -15 14 -15 16 0 2 7 4 15 4 8 0 15 -7 15 -16z
m730 -4 c-8 -5 -17 -7 -19 -4 -3 3 1 9 9 14 8 5 17 7 19 4 3 -3 -1 -9 -9 -14z
m90 16 c0 -3 -4 -8 -10 -11 -5 -3 -10 -1 -10 4 0 6 5 11 10 11 6 0 10 -2 10
-4z m434 -11 c-4 -8 -11 -15 -16 -15 -6 0 -5 6 2 15 7 8 14 15 16 15 2 0 1 -7
-2 -15z m-2229 -4 c3 -5 1 -12 -5 -16 -5 -3 -10 1 -10 9 0 18 6 21 15 7z m220
-1 c-3 -5 -10 -10 -16 -10 -5 0 -9 5 -9 10 0 6 7 10 16 10 8 0 12 -4 9 -10z
m-275 -20 c0 -21 -35 -46 -45 -31 -3 5 0 13 6 16 5 4 8 13 5 21 -3 9 2 14 14
14 13 0 20 -7 20 -20z m133 13 c-7 -2 -19 -2 -25 0 -7 3 -2 5 12 5 14 0 19 -2
13 -5z m177 -14 c0 -5 -7 -9 -15 -9 -9 0 -12 6 -9 15 6 15 24 11 24 -6z m1755
10 c11 -17 -1 -21 -15 -4 -8 9 -8 15 -2 15 6 0 14 -5 17 -11z m-1529 -21 c-9
-5 -24 -7 -34 -5 -12 3 -10 5 6 6 13 0 20 5 17 11 -4 6 1 7 11 3 15 -5 15 -7
0 -15z m641 0 c-3 -8 -6 -5 -6 6 -1 11 2 17 5 13 3 -3 4 -12 1 -19z m-814 5
c-7 -2 -21 -2 -30 0 -10 3 -4 5 12 5 17 0 24 -2 18 -5z m1607 -24 c0 -5 -7 -9
-15 -9 -9 0 -12 6 -9 15 6 15 24 11 24 -6z m-1500 7 c0 -3 -4 -8 -10 -11 -5
-3 -10 -1 -10 4 0 6 5 11 10 11 6 0 10 -2 10 -4z m1630 -6 c0 -5 -5 -10 -11
-10 -5 0 -7 5 -4 10 3 6 8 10 11 10 2 0 4 -4 4 -10z m-1577 -17 c-7 -2 -19 -2
-25 0 -7 3 -2 5 12 5 14 0 19 -2 13 -5z m607 -3 c0 -5 -5 -10 -11 -10 -5 0 -7
5 -4 10 3 6 8 10 11 10 2 0 4 -4 4 -10z m65 0 c3 -5 2 -10 -4 -10 -5 0 -13 5
-16 10 -3 6 -2 10 4 10 5 0 13 -4 16 -10z m875 1 c0 -5 -7 -12 -16 -15 -14 -5
-15 -4 -4 9 14 17 20 19 20 6z m-1763 -7 c-3 -3 -12 -4 -19 -1 -8 3 -5 6 6 6
11 1 17 -2 13 -5z m60 -46 c-3 -8 -6 -5 -6 6 -1 11 2 17 5 13 3 -3 4 -12 1
-19z m155 0 c-7 -7 -12 -8 -12 -2 0 14 12 26 19 19 2 -3 -1 -11 -7 -17z m68
13 c0 -9 -23 -21 -41 -21 -4 0 -6 7 -3 15 7 16 44 21 44 6z m627 -16 c-7 -13
-14 -20 -15 -14 -5 14 6 39 17 39 5 0 4 -11 -2 -25z m-237 11 c0 -3 -4 -8 -10
-11 -5 -3 -10 -1 -10 4 0 6 5 11 10 11 6 0 10 -2 10 -4z m2551 -93 c-8 -14
-10 -10 -10 22 1 62 13 89 17 38 2 -24 -1 -51 -7 -60z m-3346 67 c3 -5 1 -10
-4 -10 -6 0 -11 5 -11 10 0 6 2 10 4 10 3 0 8 -4 11 -10z m458 3 c-7 -2 -21
-2 -30 0 -10 3 -4 5 12 5 17 0 24 -2 18 -5z m2864 -15 c-3 -8 -6 -5 -6 6 -1
11 2 17 5 13 3 -3 4 -12 1 -19z m-2417 -20 c0 -12 -6 -9 -26 13 -19 22 -19 22
4 8 12 -8 22 -17 22 -21z m-130 1 c0 -6 -4 -7 -10 -4 -5 3 -10 11 -10 16 0 6
5 7 10 4 6 -3 10 -11 10 -16z m-353 -19 c4 -13 3 -13 -6 0 -9 12 -13 12 -19 2
-7 -11 -11 -10 -20 0 -9 11 -6 14 15 13 15 0 28 -7 30 -15z m-621 -5 c10 -8
14 -15 8 -15 -5 0 -19 7 -30 15 -10 8 -14 15 -8 15 5 0 19 -7 30 -15z m504 -2
c0 -5 -21 -8 -46 -9 -27 -1 -40 2 -32 7 16 11 78 12 78 2z m635 -3 c-3 -5 -14
-10 -23 -10 -15 0 -15 2 -2 10 20 13 33 13 25 0z m35 -20 c0 -20 -5 -30 -15
-30 -17 0 -20 16 -5 25 5 3 7 12 3 20 -3 8 0 15 6 15 6 0 11 -13 11 -30z
m-493 14 c-3 -3 -12 -4 -19 -1 -8 3 -5 6 6 6 11 1 17 -2 13 -5z m-714 -28 c15
-12 16 -15 2 -26 -9 -7 -18 -10 -22 -6 -3 3 0 6 8 6 8 0 4 8 -11 20 -16 13
-20 20 -10 19 8 0 23 -6 33 -13z m1057 4 c0 -5 -4 -10 -9 -10 -6 0 -13 5 -16
10 -3 6 1 10 9 10 9 0 16 -4 16 -10z m110 0 c0 -5 -8 -10 -17 -10 -15 0 -16 2
-3 10 19 12 20 12 20 0z m1410 0 c0 -5 -5 -10 -11 -10 -5 0 -7 5 -4 10 3 6 8
10 11 10 2 0 4 -4 4 -10z m-2925 -11 c11 -17 -1 -21 -15 -4 -8 9 -8 15 -2 15
6 0 14 -5 17 -11z m490 -41 c18 -16 41 -36 51 -44 12 -10 7 -9 -13 2 -18 10
-33 21 -33 24 0 3 -18 16 -40 30 -22 14 -40 28 -40 33 0 12 39 -11 75 -45z
m976 38 c5 3 9 0 9 -6 0 -7 8 -9 20 -5 20 6 26 -2 12 -20 -9 -13 -35 -18 -27
-6 3 6 -4 15 -16 21 -26 15 -35 7 -14 -13 19 -20 20 -38 0 -31 -21 8 -29 42
-14 61 9 10 15 11 17 4 2 -6 8 -9 13 -5z m139 3 c0 -4 -4 -11 -10 -14 -5 -3
-10 -1 -10 5 0 6 -5 8 -12 4 -6 -4 -8 -3 -5 3 7 11 37 13 37 2z m-1304 -16
c-4 -9 -1 -20 6 -24 17 -11 -16 -23 -38 -15 -15 6 -14 10 7 30 29 29 33 31 25
9z m3594 7 c0 -5 -2 -10 -4 -10 -3 0 -8 5 -11 10 -3 6 -1 10 4 10 6 0 11 -4
11 -10z m-3842 -30 c13 -16 29 -30 36 -30 7 0 31 -13 52 -28 21 -16 47 -31 57
-35 10 -4 17 -16 16 -29 -1 -15 -3 -17 -6 -7 -2 9 -26 28 -53 43 -28 15 -50
31 -50 37 0 5 -6 9 -14 9 -7 0 -19 7 -26 15 -7 8 -16 12 -21 9 -5 -3 -9 4 -9
15 0 10 -6 22 -12 24 -7 3 -8 6 -2 6 5 1 20 -12 32 -29z m1492 10 c0 -5 -5
-10 -11 -10 -5 0 -7 5 -4 10 3 6 8 10 11 10 2 0 4 -4 4 -10z m2311 -33 c-8 -8
-14 -8 -23 2 -11 10 -10 11 5 6 13 -6 17 -2 18 16 1 19 2 20 6 5 3 -10 0 -23
-6 -29z m86 37 c-3 -3 -12 -4 -19 -1 -8 3 -5 6 6 6 11 1 17 -2 13 -5z m-3265
-36 c-6 -6 -15 -8 -19 -4 -4 4 -1 11 7 16 19 12 27 3 12 -12z m750 -34 c-9 -6
-13 -18 -9 -27 8 -22 -8 -31 -22 -13 -9 11 -9 16 -1 21 16 10 -26 38 -43 29
-6 -3 2 5 18 19 l30 26 21 -22 c18 -19 19 -23 6 -33z m2485 34 c-3 -8 -6 -5
-6 6 -1 11 2 17 5 13 3 -3 4 -12 1 -19z m-2867 -4 c0 -8 -5 -12 -10 -9 -6 4
-8 11 -5 16 9 14 15 11 15 -7z m-630 -4 c0 -5 -7 -10 -15 -10 -8 0 -15 5 -15
10 0 6 7 10 15 10 8 0 15 -4 15 -10z m3395 0 c-3 -5 -1 -10 5 -10 6 0 8 -5 4
-12 -6 -9 -9 -9 -12 0 -3 9 -9 9 -25 1 -19 -9 -18 -7 3 10 28 23 34 26 25 11z
m-3351 -15 c-4 -8 -8 -15 -10 -15 -2 0 -4 7 -4 15 0 8 4 15 10 15 5 0 7 -7 4
-15z m166 5 c0 -5 -2 -10 -4 -10 -3 0 -8 5 -11 10 -3 6 -1 10 4 10 6 0 11 -4
11 -10z m-588 -55 c5 -8 17 -11 30 -7 11 3 19 1 16 -4 -6 -9 17 -36 24 -29 2
2 9 -5 16 -15 14 -23 0 -27 -18 -5 -7 8 -19 15 -26 15 -8 0 -14 5 -14 11 0 5
-4 8 -9 4 -5 -3 -13 0 -16 5 -4 6 -18 15 -31 20 -13 5 -24 17 -24 26 0 10 -5
14 -15 10 -9 -3 -15 0 -15 10 0 13 6 12 38 -6 20 -12 40 -28 44 -35z m-74 -26
c-6 -4 -6 -9 3 -15 7 -4 14 -3 16 3 5 13 43 5 43 -8 0 -5 6 -9 14 -9 21 0 34
-23 25 -45 -4 -11 -8 -14 -8 -7 -1 7 -6 10 -12 6 -8 -4 -9 0 -4 15 8 26 2 27
-21 4 -17 -17 -18 -17 -11 0 4 11 2 17 -7 17 -18 0 -67 40 -62 49 3 4 -6 15
-20 25 -13 11 -24 23 -24 28 0 5 18 -6 39 -24 22 -18 35 -36 29 -39z m1568 46
c0 -15 -6 -23 -13 -21 -7 3 -15 1 -18 -4 -10 -17 -21 -11 -22 11 -1 12 1 19 4
15 3 -3 15 1 27 9 26 19 24 19 22 -10z m-929 -4 c-1 -16 -5 -18 -20 -9 -16 8
-17 12 -6 19 21 13 28 11 26 -10z m743 4 c-7 -8 -16 -12 -21 -9 -5 3 -9 1 -9
-4 0 -6 12 -13 26 -16 15 -4 33 -14 41 -21 10 -11 19 -12 33 -5 26 14 30 13
30 -8 0 -10 -6 -19 -12 -19 -7 -1 -28 -4 -47 -9 -31 -6 -33 -5 -27 14 5 15 2
22 -15 27 -39 13 -49 28 -32 48 21 22 52 24 33 2z m-1486 -10 c-4 -8 -10 -12
-15 -9 -11 6 -2 24 11 24 5 0 7 -7 4 -15z m556 -5 c14 -11 19 -20 12 -20 -7 0
-22 9 -34 20 -28 26 -11 26 22 0z m-280 -20 c0 -6 -7 -10 -16 -10 -8 0 -12 5
-9 10 3 6 1 10 -4 10 -6 0 -11 5 -11 10 0 7 6 7 20 0 11 -6 20 -15 20 -20z
m3685 20 c3 -5 1 -10 -4 -10 -6 0 -11 5 -11 10 0 6 2 10 4 10 3 0 8 -4 11 -10z
m-3455 -10 c0 -5 -2 -10 -4 -10 -3 0 -8 5 -11 10 -3 6 -1 10 4 10 6 0 11 -4
11 -10z m870 6 c0 -2 -7 -7 -16 -10 -8 -3 -12 -2 -9 4 6 10 25 14 25 6z m-910
-16 c12 -8 9 -10 -12 -10 -16 0 -28 5 -28 10 0 13 20 13 40 0z m114 -35 c-26
-18 -30 -11 -7 12 10 10 20 15 22 10 1 -4 -5 -14 -15 -22z m857 17 c-7 -2 -18
1 -23 6 -8 8 -4 9 13 5 13 -4 18 -8 10 -11z m-1424 -12 c-1 -12 -5 -16 -10
-11 -5 5 -6 14 -3 20 11 16 15 13 13 -9z m318 -5 c17 -14 26 -25 20 -25 -5 0
-23 11 -39 25 -38 32 -20 32 19 0z m94 -5 c7 0 9 -5 6 -10 -7 -11 -54 19 -55
34 0 5 8 2 18 -7 10 -10 24 -17 31 -17z m111 20 c0 -5 -2 -10 -4 -10 -3 0 -8
5 -11 10 -3 6 -1 10 4 10 6 0 11 -4 11 -10z m8 -40 c13 0 14 -2 3 -12 -10 -10
-15 -10 -18 -1 -2 7 -21 17 -41 24 -36 12 -36 13 -12 19 18 5 29 2 39 -11 7
-11 21 -19 29 -19z m112 30 c0 -5 -5 -10 -11 -10 -5 0 -7 5 -4 10 3 6 8 10 11
10 2 0 4 -4 4 -10z m740 -5 c-12 -15 -30 -12 -30 6 0 5 10 9 21 9 18 0 19 -2
9 -15z m80 -7 c0 -13 -4 -29 -9 -36 -5 -8 -7 0 -7 22 1 39 16 51 16 14z m-32
-13 c0 -14 -4 -25 -8 -25 -11 0 -21 30 -14 41 10 17 22 9 22 -16z m2452 21 c0
-3 -4 -8 -10 -11 -5 -3 -10 -1 -10 4 0 6 5 11 10 11 6 0 10 -2 10 -4z m-3580
-26 c0 -5 -7 -10 -16 -10 -8 0 -12 5 -9 10 3 6 10 10 16 10 5 0 9 -4 9 -10z
m3517 4 c-3 -3 -12 -4 -19 -1 -8 3 -5 6 6 6 11 1 17 -2 13 -5z m-3442 -14 c3
-5 2 -10 -4 -10 -5 0 -13 5 -16 10 -3 6 -2 10 4 10 5 0 13 -4 16 -10z m989
-16 c-14 -21 -15 -27 -4 -34 7 -5 10 -15 6 -25 -9 -25 -19 -12 -21 30 -2 24 2
38 14 45 23 14 23 13 5 -16z m258 4 c-7 -7 -12 -8 -12 -2 0 14 12 26 19 19 2
-3 -1 -11 -7 -17z m-1397 3 c3 -5 1 -12 -5 -16 -5 -3 -10 1 -10 9 0 18 6 21
15 7z m106 -14 c-10 -9 -11 -8 -5 6 3 10 9 15 12 12 3 -3 0 -11 -7 -18z m1207
11 c7 -7 12 -19 12 -27 -1 -12 -4 -11 -12 4 -6 11 -16 23 -22 27 -7 5 -8 8 0
8 5 0 15 -5 22 -12z m-1276 -16 c-7 -2 -9 -9 -6 -14 4 -7 2 -8 -4 -4 -19 12
-15 36 5 29 11 -4 13 -8 5 -11z m152 10 c3 -5 -1 -9 -9 -9 -8 0 -12 4 -9 9 3
4 7 8 9 8 2 0 6 -4 9 -8z m894 -4 c-2 -6 -10 -14 -16 -16 -7 -2 -10 2 -6 12 7
18 28 22 22 4z m182 2 c0 -5 -5 -10 -11 -10 -5 0 -7 5 -4 10 3 6 8 10 11 10 2
0 4 -4 4 -10z m175 -26 c1 -13 -2 -24 -6 -24 -4 0 -7 14 -7 30 1 35 13 30 13
-6z m2032 4 c-3 -7 -5 -2 -5 12 0 14 2 19 5 13 2 -7 2 -19 0 -25z m86 25 c-7
-2 -19 -2 -25 0 -7 3 -2 5 12 5 14 0 19 -2 13 -5z m-2458 -12 c-3 -5 -1 -12 5
-16 6 -4 8 -11 4 -16 -3 -5 -9 -7 -14 -4 -11 6 -30 -18 -35 -45 -3 -15 0 -20
10 -17 21 9 25 -18 5 -36 -10 -8 -21 -13 -24 -10 -3 4 -6 -1 -6 -10 0 -22 -17
-22 -24 1 -3 9 -4 0 -1 -20 2 -26 -1 -38 -12 -42 -11 -4 -13 -2 -9 9 3 9 0 15
-9 15 -8 0 -15 9 -15 20 0 11 -4 20 -10 20 -5 0 -10 -6 -10 -12 0 -9 -3 -8
-10 2 -7 12 -11 10 -18 -10 -6 -17 -6 -27 2 -32 13 -8 17 -48 5 -48 -4 0 -9
10 -11 23 -3 19 -8 22 -38 19 -35 -3 -35 -3 -12 13 12 9 27 13 32 10 6 -3 10
-1 10 4 0 6 -10 11 -22 12 -13 0 -17 3 -10 6 6 2 9 10 6 16 -5 8 -2 8 7 0 10
-11 19 -8 43 14 17 16 25 21 19 13 -21 -24 -14 -34 9 -14 17 15 20 16 16 3 -4
-9 -2 -22 3 -30 7 -11 9 -10 10 6 0 11 3 29 6 40 2 11 7 34 10 52 3 18 12 38
21 45 14 11 15 10 7 -7 -11 -27 -12 -105 -1 -105 5 0 6 16 3 36 -4 25 -2 37 8
40 8 3 11 12 8 20 -3 8 1 14 10 14 8 0 17 7 21 15 3 8 8 15 11 15 4 0 4 -4 0
-9z m85 -6 c0 -8 -4 -15 -10 -15 -5 0 -10 7 -10 15 0 8 5 15 10 15 6 0 10 -7
10 -15z m110 -15 c-10 -7 -11 -10 -2 -10 15 0 16 -22 0 -38 -8 -8 -15 -9 -25
-1 -9 8 -14 7 -19 -5 -9 -24 -21 -19 -33 14 -6 18 -6 30 0 30 5 0 10 -8 10
-17 1 -17 2 -17 6 0 2 9 11 17 18 17 8 0 19 9 26 21 8 16 14 18 22 10 9 -9 8
-14 -3 -21z m-1161 0 c9 -5 4 -7 -15 -6 -16 1 -38 7 -49 14 -17 10 -15 11 15
5 19 -3 41 -9 49 -13z m141 10 c0 -5 -2 -10 -4 -10 -3 0 -8 5 -11 10 -3 6 -1
10 4 10 6 0 11 -4 11 -10z m401 -7 c13 -17 13 -17 -6 -3 -11 8 -22 16 -24 17
-2 2 0 3 6 3 6 0 17 -8 24 -17z m549 13 c0 -3 -4 -8 -10 -11 -5 -3 -10 -1 -10
4 0 6 5 11 10 11 6 0 10 -2 10 -4z m140 -21 c0 -8 -4 -15 -8 -15 -5 0 -9 7 -9
15 0 8 4 15 9 15 4 0 8 -7 8 -15z m-1760 1 c0 -3 -4 -8 -10 -11 -5 -3 -10 -1
-10 4 0 6 5 11 10 11 6 0 10 -2 10 -4z m730 -37 c0 -14 -5 -11 -31 17 l-24 27
28 -18 c15 -9 27 -21 27 -26z m480 31 c0 -5 -4 -10 -10 -10 -5 0 -10 5 -10 10
0 6 5 10 10 10 6 0 10 -4 10 -10z m-743 -6 c-3 -3 -12 -4 -19 -1 -8 3 -5 6 6
6 11 1 17 -2 13 -5z m123 -26 c0 -4 -12 -2 -26 4 -23 11 -24 13 -7 19 16 6 32
-5 33 -23z m805 -5 c-2 -10 -4 -24 -4 -32 -1 -11 -4 -11 -17 0 -14 11 -20 9
-45 -19 -16 -18 -29 -29 -29 -25 0 9 82 92 92 93 3 0 5 -8 3 -17z m415 8 c0
-18 -25 -30 -40 -19 -12 8 -12 9 3 4 11 -3 17 0 17 9 0 8 5 15 10 15 6 0 10
-4 10 -9z m-1877 -8 c3 -5 -6 -9 -20 -10 -19 -1 -22 1 -12 8 17 11 26 11 32 2z
m697 -13 c0 -5 -7 -10 -16 -10 -8 0 -12 5 -9 10 3 6 10 10 16 10 5 0 9 -4 9
-10z m-535 -11 c11 -16 1 -19 -13 -3 -7 8 -8 14 -3 14 5 0 13 -5 16 -11z
m1461 0 c3 -6 2 -14 -3 -18 -6 -3 -13 -13 -16 -21 -3 -8 -6 0 -6 18 -1 32 11
42 25 21z m28 -14 c3 -8 1 -15 -4 -15 -6 0 -10 7 -10 15 0 8 2 15 4 15 2 0 6
-7 10 -15z m92 -15 c0 -11 -4 -20 -8 -20 -4 0 -8 7 -8 15 0 25 -20 17 -38 -15
-12 -21 -22 -28 -34 -24 -10 3 -18 1 -18 -5 0 -6 -4 -11 -10 -11 -5 0 -10 12
-10 26 0 23 2 25 16 13 14 -11 18 -11 29 4 7 9 17 17 24 17 6 0 11 5 11 10 0
6 10 10 23 10 16 0 23 -6 23 -20z m44 5 c7 -8 8 -15 2 -15 -5 0 -15 7 -22 15
-7 8 -8 15 -2 15 5 0 15 -7 22 -15z m-1795 -5 c3 -5 2 -10 -4 -10 -5 0 -13 5
-16 10 -3 6 -2 10 4 10 5 0 13 -4 16 -10z m-10 -40 c3 -6 -1 -7 -9 -4 -18 7
-21 14 -7 14 6 0 13 -4 16 -10z m1745 -2 c0 -7 -7 -22 -15 -32 -12 -15 -18
-17 -27 -8 -9 9 -7 13 5 18 9 3 17 12 17 20 0 8 5 14 10 14 6 0 10 -6 10 -12z
m32 -10 c-7 -7 -12 -8 -12 -2 0 14 12 26 19 19 2 -3 -1 -11 -7 -17z m49 10 c0
-10 2 -10 6 0 7 19 23 14 23 -7 0 -25 -22 -32 -37 -12 -15 20 -16 31 -3 31 6
0 10 -6 11 -12z m2009 8 c0 -3 -4 -8 -10 -11 -5 -3 -10 -1 -10 4 0 6 5 11 10
11 6 0 10 -2 10 -4z m2217 -33 c-3 -10 -5 -4 -5 12 0 17 2 24 5 18 2 -7 2 -21
0 -30z m-4433 0 c-2 -46 -4 -53 -14 -53 -6 0 -5 8 2 20 11 17 10 22 -2 30 -13
9 -13 11 0 20 8 5 15 10 15 10 1 0 0 -12 -1 -27z m2112 0 c-10 -10 -19 5 -10
18 6 11 8 11 12 0 2 -7 1 -15 -2 -18z m-3666 -8 c0 -12 -29 -3 -34 10 -4 13
-2 14 14 5 11 -6 20 -13 20 -15z m1470 5 c0 -5 -5 -10 -11 -10 -5 0 -7 5 -4
10 3 6 8 10 11 10 2 0 4 -4 4 -10z m-1443 -16 c-7 -7 58 -54 76 -55 7 0 3 -4
-8 -8 -15 -6 -22 -3 -27 10 -12 30 -31 23 -24 -8 3 -16 3 -23 0 -16 -3 7 -12
9 -20 6 -8 -3 -14 -1 -14 5 0 6 5 12 12 14 7 3 9 12 5 22 -6 14 -14 17 -37 13
-17 -4 -32 -2 -36 5 -4 7 -3 8 4 4 7 -4 20 -2 29 3 20 11 50 15 40 5z m648 -5
c11 -17 -1 -21 -15 -4 -8 9 -8 15 -2 15 6 0 14 -5 17 -11z m465 1 c0 -5 -5
-10 -11 -10 -5 0 -7 5 -4 10 3 6 8 10 11 10 2 0 4 -4 4 -10z m372 -41 c-2 -22
-7 -38 -10 -35 -5 5 -7 17 -11 59 -1 5 -5 5 -11 2 -5 -3 -7 0 -4 8 3 8 13 13
22 10 14 -3 17 -13 14 -44z m73 40 c-9 -13 25 -40 43 -34 18 6 15 -22 -4 -29
-11 -4 -18 1 -21 14 -7 28 -28 25 -52 -6 -20 -25 -21 -26 -21 -5 0 11 6 21 14
21 8 0 17 11 20 25 4 14 11 25 17 25 6 0 7 -5 4 -11z m-501 -7 c3 -5 -4 -16
-14 -25 -24 -20 -36 -5 -14 17 18 18 21 19 28 8z m556 -2 c0 -5 -4 -10 -10
-10 -5 0 -10 5 -10 10 0 6 5 10 10 10 6 0 10 -4 10 -10z m-1700 -10 c11 -8 7
-9 -15 -5 -16 3 -24 2 -17 -1 6 -3 12 -10 12 -15 0 -5 -9 -4 -20 3 -14 9 -16
14 -7 20 16 10 29 10 47 -2z m220 0 c0 -5 -2 -10 -4 -10 -3 0 -8 5 -11 10 -3
6 -1 10 4 10 6 0 11 -4 11 -10z m1553 -3 c3 -8 -1 -14 -9 -14 -15 0 -18 9 -7
20 9 9 10 9 16 -6z m4264 -34 c-3 -10 -5 -2 -5 17 0 19 2 27 5 18 2 -10 2 -26
0 -35z m-5992 8 c-11 -5 -24 -6 -29 -3 -5 3 -6 0 -2 -6 4 -7 16 -12 27 -12 10
0 19 -4 19 -9 0 -11 -39 -3 -58 12 -17 13 3 27 38 26 23 0 23 -1 5 -8z m585
-6 c0 -8 -2 -15 -4 -15 -2 0 -6 7 -10 15 -3 8 -1 15 4 15 6 0 10 -7 10 -15z
m1184 -22 c-1 -21 -2 -44 -3 -51 -1 -18 -21 -5 -21 14 0 9 5 12 11 8 7 -4 10
-1 7 7 -3 8 -11 13 -17 12 -27 -7 -4 37 25 47 0 0 0 -17 -2 -37z m-1974 12 c0
-8 -4 -15 -10 -15 -5 0 -10 7 -10 15 0 8 5 15 10 15 6 0 10 -7 10 -15z m1641
-7 c-11 -11 -18 -24 -16 -29 3 -4 -4 -5 -15 -2 -11 3 -20 12 -20 20 0 8 6 13
12 11 7 -3 19 1 26 9 22 22 34 14 13 -9z m-1589 5 c-10 -4 -10 -8 -1 -19 13
-16 39 -19 39 -4 0 6 -5 10 -12 10 -6 0 -8 3 -4 7 4 5 13 1 19 -7 7 -8 24 -21
39 -29 16 -8 26 -16 24 -18 -2 -3 -18 3 -35 12 -17 9 -31 11 -31 5 0 -5 -7
-10 -15 -10 -8 0 -15 4 -15 9 0 5 -12 12 -27 16 -27 6 -27 7 -9 21 11 8 25 14
30 13 6 0 5 -3 -2 -6z m73 -11 c-3 -3 -11 0 -18 7 -9 10 -8 11 6 5 10 -3 15
-9 12 -12z m780 -2 c3 -5 1 -10 -4 -10 -6 0 -11 5 -11 10 0 6 2 10 4 10 3 0 8
-4 11 -10z m795 -44 c-8 -8 -10 -7 -5 7 5 10 2 17 -5 17 -9 0 -9 4 1 17 13 15
14 14 17 -7 2 -12 -1 -27 -8 -34z m118 37 c2 -7 -3 -13 -12 -13 -9 0 -16 5
-16 11 0 5 -5 7 -12 3 -7 -4 -8 -3 -4 5 10 15 38 11 44 -6z m85 -53 c2 -25 3
-39 0 -32 -3 6 -11 12 -19 12 -9 0 -12 5 -9 11 4 6 7 27 7 47 0 47 14 22 21
-38z m-563 56 c0 -3 -4 -8 -10 -11 -5 -3 -10 -1 -10 4 0 6 5 11 10 11 6 0 10
-2 10 -4z m4847 -43 c-3 -10 -5 -2 -5 17 0 19 2 27 5 18 2 -10 2 -26 0 -35z
m-5887 26 c0 -8 5 -8 15 1 12 10 15 10 15 -3 0 -14 -20 -27 -41 -27 -5 0 -9 9
-9 20 0 11 5 20 10 20 6 0 10 -5 10 -11z m-71 -39 c10 -15 11 -21 4 -16 -8 4
-13 1 -13 -8 0 -9 -2 -16 -5 -16 -8 0 -45 39 -45 47 0 4 5 2 12 -5 7 -7 19
-12 28 -12 10 1 5 9 -15 26 -27 22 -28 24 -6 16 14 -5 32 -19 40 -32z m1012
17 c-10 -9 -11 -8 -5 6 3 10 9 15 12 12 3 -3 0 -11 -7 -18z m596 7 c-3 -3 -12
-4 -19 -1 -8 3 -5 6 6 6 11 1 17 -2 13 -5z m-1727 -15 c3 -3 25 -18 48 -33 24
-15 41 -30 38 -34 -4 -3 -20 4 -36 16 -16 13 -44 25 -62 28 -29 5 -27 2 15
-17 26 -12 47 -28 47 -35 0 -7 28 -27 62 -43 58 -27 64 -28 86 -13 18 11 20
17 10 23 -10 7 -10 9 0 9 7 0 15 -7 18 -15 4 -8 15 -15 25 -15 10 0 19 -4 19
-10 0 -5 -9 -10 -21 -10 -13 0 -20 -6 -18 -17 5 -56 -16 -73 -51 -43 -12 10
-29 16 -37 13 -10 -4 -14 -2 -9 5 9 15 -12 26 -27 13 -8 -6 -18 -6 -27 -1 -10
7 -11 10 -2 10 6 0 12 5 12 10 0 6 -10 9 -22 7 -13 -2 -17 -2 -10 0 17 6 15
23 -2 23 -8 0 -17 6 -20 13 -5 10 -7 10 -12 0 -8 -18 -45 -17 -38 1 3 8 0 17
-5 21 -12 7 -5 25 9 25 5 0 7 -7 4 -15 -4 -10 0 -15 10 -15 14 0 15 4 6 20
-11 21 -52 28 -47 9 1 -6 -4 -14 -12 -17 -9 -3 -11 0 -6 8 5 8 1 11 -11 10
-35 -4 -44 0 -45 18 0 15 -1 15 -8 -2 -6 -15 -10 -16 -16 -7 -4 8 -2 17 6 22
21 13 29 11 30 -8 0 -12 2 -13 6 -5 4 9 8 10 18 2 9 -7 15 -8 19 -1 4 6 -5 18
-19 27 -14 9 -25 20 -25 24 0 8 93 8 100 -1z m1740 -14 c-7 -8 -17 -15 -23
-15 -5 0 -2 9 8 20 21 23 35 19 15 -5z m150 18 c0 -18 -38 -64 -42 -52 -3 9
-6 8 -11 -4 -4 -11 -1 -17 8 -17 8 0 15 -5 15 -11 0 -6 -7 -9 -15 -5 -17 6
-21 -9 -5 -19 15 -9 12 -42 -5 -49 -8 -3 -15 -1 -15 4 0 6 5 10 10 10 6 0 10
5 10 11 0 6 -9 9 -20 6 -24 -6 -38 11 -16 19 10 4 16 18 16 35 0 16 5 29 11
29 5 0 7 6 3 13 -6 9 -5 9 8 0 17 -15 28 -8 28 19 0 10 5 18 10 18 6 0 10 -3
10 -7z m-780 -11 c0 -4 -9 -13 -20 -20 -19 -12 -20 -11 -8 8 13 20 28 27 28
12z m-1233 -8 c-3 -3 -12 -4 -19 -1 -8 3 -5 6 6 6 11 1 17 -2 13 -5z m343 -14
c0 -5 -7 -10 -15 -10 -8 0 -15 5 -15 10 0 6 7 10 15 10 8 0 15 -4 15 -10z
m150 6 c0 -2 -7 -7 -16 -10 -8 -3 -12 -2 -9 4 6 10 25 14 25 6z m5697 -33 c-3
-10 -5 -4 -5 12 0 17 2 24 5 18 2 -7 2 -21 0 -30z m-4562 17 c-3 -5 -10 -10
-16 -10 -5 0 -9 5 -9 10 0 6 7 10 16 10 8 0 12 -4 9 -10z m68 -7 c-7 -2 -21
-2 -30 0 -10 3 -4 5 12 5 17 0 24 -2 18 -5z m-1786 -33 c7 -10 10 -27 7 -37
-4 -12 1 -10 15 7 l21 25 0 -22 c0 -13 5 -23 11 -23 5 0 7 -5 3 -11 -4 -7 -1
-10 7 -7 18 6 43 -42 29 -56 -7 -7 -10 -5 -10 7 0 9 -6 17 -13 17 -12 0 -26 9
-74 50 -7 6 -10 16 -7 24 3 8 1 17 -5 21 -13 7 -15 25 -3 25 4 0 13 -9 19 -20z
m418 10 c-3 -5 -16 -10 -28 -9 -20 1 -20 2 3 9 14 4 26 8 28 9 2 1 0 -3 -3 -9z
m1581 -17 c-8 -8 -36 5 -36 17 0 7 6 7 21 0 11 -7 18 -14 15 -17z m-1896 -10
c0 -7 5 -13 10 -13 6 0 10 -4 10 -9 0 -4 -12 -6 -26 -3 -15 3 -23 10 -20 18 3
7 0 15 -7 17 -7 3 -2 4 11 4 12 -1 22 -7 22 -14z m230 7 c0 -5 8 -10 19 -10
10 0 24 -7 31 -15 16 -20 12 -19 -38 5 -44 22 -52 30 -27 30 8 0 15 -4 15 -10z
m-160 -20 c0 -5 -4 -10 -10 -10 -5 0 -10 5 -10 10 0 6 5 10 10 10 6 0 10 -4
10 -10z m317 4 c-3 -3 -12 -4 -19 -1 -8 3 -5 6 6 6 11 1 17 -2 13 -5z m-341
-35 c7 -11 -27 -11 -45 0 -9 6 -5 9 13 9 15 0 29 -4 32 -9z m1029 -9 c-3 -5
-11 -10 -16 -10 -6 0 -7 5 -4 10 3 6 11 10 16 10 6 0 7 -4 4 -10z m848 -30
c14 0 18 -3 11 -10 -18 -18 -44 0 -43 29 2 23 2 24 6 4 3 -15 12 -23 26 -23z
m-1847 15 c-4 -11 -1 -15 9 -13 9 2 21 -8 28 -22 7 -14 20 -24 29 -24 11 1 14
-4 10 -14 -4 -12 -1 -14 14 -8 14 5 16 4 8 -4 -18 -18 -85 20 -78 44 4 12 2
16 -6 11 -6 -4 -17 1 -25 11 -10 14 -10 21 -2 26 17 11 20 10 13 -7z m321 -25
c3 -11 9 -20 14 -20 5 0 9 -4 9 -10 0 -11 -32 -1 -42 14 -11 16 -9 36 3 36 6
0 13 -9 16 -20z m1193 0 c0 -5 -4 -10 -10 -10 -5 0 -10 5 -10 10 0 6 5 10 10
10 6 0 10 -4 10 -10z m-1740 -10 c0 -5 -4 -10 -10 -10 -5 0 -10 5 -10 10 0 6
5 10 10 10 6 0 10 -4 10 -10z m90 0 c0 -5 -2 -10 -4 -10 -3 0 -8 5 -11 10 -3
6 -1 10 4 10 6 0 11 -4 11 -10z m138 -35 c7 -5 19 -15 26 -22 7 -6 28 -21 46
-32 29 -17 31 -20 11 -18 -13 1 -37 14 -54 30 -53 49 -85 69 -90 55 -3 -7 -6
-3 -6 10 -1 22 -1 22 27 5 15 -10 33 -22 40 -28z m-164 19 c4 -10 1 -14 -6
-12 -15 5 -23 28 -10 28 5 0 13 -7 16 -16z m37 -20 c-5 -16 -10 -21 -10 -12
-1 18 10 51 15 45 2 -1 -1 -16 -5 -33z m1944 26 c3 -5 1 -10 -4 -10 -6 0 -11
5 -11 10 0 6 2 10 4 10 3 0 8 -4 11 -10z m-1270 -18 c-3 -3 -11 0 -18 7 -9 10
-8 11 6 5 10 -3 15 -9 12 -12z m1187 -8 c-3 -17 -7 -22 -12 -13 -9 13 -2 39
10 39 4 0 5 -12 2 -26z m-1827 -22 c-8 -8 -25 10 -19 20 4 6 9 5 15 -3 4 -7 6
-15 4 -17z m3715 18 c0 -5 -4 -10 -10 -10 -5 0 -10 5 -10 10 0 6 5 10 10 10 6
0 10 -4 10 -10z m-3636 -25 c4 -14 13 -25 21 -25 7 0 16 -4 19 -8 14 -23 -28
-5 -50 20 -13 16 -24 26 -24 21 0 -4 -3 -19 -6 -33 -5 -20 -3 -22 5 -10 10 13
13 13 22 -3 6 -10 25 -27 42 -39 l32 -20 -27 5 c-21 3 -28 0 -29 -12 -1 -13
-2 -13 -6 2 -5 18 -33 24 -33 7 0 -6 11 -23 24 -37 22 -24 28 -25 51 -15 34
16 65 15 65 0 0 -10 2 -10 9 0 6 10 10 10 21 -3 14 -17 10 -18 -42 -17 -30 1
-35 -7 -16 -26 7 -7 9 -12 4 -12 -10 0 -98 49 -117 66 -8 8 -19 14 -23 14 -3
0 -22 16 -42 35 -19 19 -39 35 -44 35 -13 0 -13 17 -1 25 5 3 17 -2 26 -12 14
-14 18 -14 26 -2 7 11 9 8 9 -9 0 -14 4 -21 11 -16 6 3 8 15 5 27 -3 13 3 29
17 43 28 30 43 30 51 -1z m341 5 c3 -6 -4 -10 -17 -10 -18 0 -20 2 -8 10 19
12 18 12 25 0z m75 0 c0 -5 -2 -10 -4 -10 -3 0 -8 5 -11 10 -3 6 -1 10 4 10 6
0 11 -4 11 -10z m-560 -10 c0 -5 -5 -10 -11 -10 -5 0 -7 5 -4 10 3 6 8 10 11
10 2 0 4 -4 4 -10z m1070 2 c0 -5 -7 -9 -15 -9 -8 0 -12 4 -9 9 3 4 9 8 15 8
5 0 9 -4 9 -8z m744 -7 c-6 -16 -24 -21 -24 -7 0 11 11 22 21 22 5 0 6 -7 3
-15z m-1764 -5 c0 -5 -7 -10 -15 -10 -8 0 -15 5 -15 10 0 6 7 10 15 10 8 0 15
-4 15 -10z m240 6 c0 -3 -4 -8 -10 -11 -5 -3 -10 -1 -10 4 0 6 5 11 10 11 6 0
10 -2 10 -4z m123 -31 c-22 -17 -30 -11 -13 10 7 8 17 12 22 9 5 -3 1 -12 -9
-19z m572 5 c-3 -5 -12 -10 -18 -10 -7 0 -6 4 3 10 19 12 23 12 15 0z m-618
-41 c14 -5 23 -12 20 -15 -11 -11 -62 21 -65 41 -3 19 -2 19 8 2 7 -10 23 -22
37 -28z m1653 11 c0 -5 -4 -10 -10 -10 -5 0 -10 5 -10 10 0 6 5 10 10 10 6 0
10 -4 10 -10z m-1746 -29 c4 -5 -3 -7 -13 -4 -11 3 -22 11 -25 19 -4 11 -2 12
14 4 10 -5 21 -14 24 -19z m702 7 c-1 -13 -9 -23 -17 -23 -8 0 -21 -8 -29 -18
-15 -18 -16 -18 -17 2 -1 12 2 19 6 17 5 -3 19 6 31 19 29 31 31 31 26 3z
m-666 2 c0 -5 -2 -10 -4 -10 -3 0 -8 5 -11 10 -3 6 -1 10 4 10 6 0 11 -4 11
-10z m700 -30 c0 -11 -7 -20 -15 -20 -15 0 -21 21 -8 33 12 13 23 7 23 -13z
m-250 -1 c0 -4 8 -10 18 -12 13 -4 14 -5 1 -6 -8 0 -23 5 -33 12 -16 12 -16
14 -2 14 9 0 16 -4 16 -8z m-555 -9 c-3 -5 -10 -10 -16 -10 -5 0 -9 5 -9 10 0
6 7 10 16 10 8 0 12 -4 9 -10z m120 -18 c-7 -8 -35 7 -35 18 0 6 7 6 20 -2 10
-7 17 -14 15 -16z m545 18 c0 -5 -5 -10 -11 -10 -5 0 -7 5 -4 10 3 6 8 10 11
10 2 0 4 -4 4 -10z m19 -31 c-11 -21 -10 -21 12 -5 40 28 47 21 46 -43 -1 -33
-3 -58 -6 -56 -8 9 -33 -27 -27 -40 3 -8 1 -17 -4 -20 -14 -9 -11 34 5 80 8
22 15 48 15 57 0 15 -4 16 -24 7 -21 -10 -23 -15 -16 -40 9 -31 -5 -42 -14
-11 -3 9 -4 0 -1 -20 3 -30 0 -40 -16 -48 -11 -6 -17 -15 -14 -21 4 -5 11 -7
16 -4 15 10 10 -32 -8 -64 -10 -17 -26 -31 -35 -31 -10 0 -18 -5 -18 -12 0 -6
-3 -9 -6 -5 -10 10 7 68 19 64 14 -4 42 21 33 30 -3 3 -12 0 -20 -7 -9 -6 -21
-10 -28 -7 -9 4 -9 6 2 6 11 1 15 11 14 36 -1 19 2 38 7 41 5 3 9 16 9 30 0
13 4 24 9 24 5 0 12 12 16 27 7 31 23 53 37 53 5 0 4 -10 -3 -21z m-515 -15
c7 -19 2 -18 -19 6 -16 17 -16 20 -3 15 9 -4 19 -13 22 -21z m615 0 c-6 -7
-15 -11 -21 -8 -5 3 -4 12 3 20 6 7 15 11 21 8 5 -3 4 -12 -3 -20z m-645 -2
c3 -5 -1 -9 -9 -9 -8 0 -12 4 -9 9 3 4 7 8 9 8 2 0 6 -4 9 -8z m97 -9 c13 -17
13 -17 -6 -3 -11 8 -22 16 -24 17 -2 2 0 3 6 3 6 0 17 -8 24 -17z m-151 -3 c0
-5 -4 -10 -10 -10 -5 0 -10 5 -10 10 0 6 5 10 10 10 6 0 10 -4 10 -10z m1687
-37 c-3 -10 -5 -4 -5 12 0 17 2 24 5 18 2 -7 2 -21 0 -30z m-997 -4 c0 -6 -4
-7 -10 -4 -5 3 -10 11 -10 16 0 6 5 7 10 4 6 -3 10 -11 10 -16z m-456 -14 c14
-14 30 -25 36 -25 5 0 10 -7 10 -16 0 -8 3 -13 8 -11 4 3 7 -5 7 -18 0 -14 -5
-21 -12 -18 -7 3 -13 15 -13 27 0 14 -10 28 -26 36 -14 8 -30 22 -35 32 -13
25 -4 22 25 -7z m-444 -23 c0 -13 -12 -22 -22 -16 -10 6 -1 24 13 24 5 0 9 -4
9 -8z m1874 -7 c3 -8 1 -15 -4 -15 -6 0 -10 7 -10 15 0 8 2 15 4 15 2 0 6 -7
10 -15z m-1214 1 c0 -14 -21 -58 -26 -54 -8 8 7 58 17 58 5 0 9 -2 9 -4z m-74
-28 c5 -7 3 -8 -6 -3 -10 6 -12 4 -6 -11 5 -14 4 -16 -5 -7 -6 6 -8 16 -5 22
9 14 13 14 22 -1z m-646 -8 c0 -5 -4 -10 -10 -10 -5 0 -10 5 -10 10 0 6 5 10
10 10 6 0 10 -4 10 -10z m60 -5 c0 -20 16 -19 24 2 9 23 22 5 29 -39 6 -42 -3
-50 -18 -16 -6 13 -24 26 -42 30 -36 9 -45 38 -13 38 11 0 20 -7 20 -15z m590
-51 c0 -8 -60 32 -65 44 -2 7 11 1 30 -14 19 -14 35 -28 35 -30z m57 4 c-3 -8
-6 -5 -6 6 -1 11 2 17 5 13 3 -3 4 -12 1 -19z m188 9 c7 10 16 15 20 11 4 -4
-5 -18 -20 -32 -29 -27 -45 -33 -45 -16 0 6 6 10 14 10 8 0 13 8 11 18 -1 9 0
11 2 4 4 -10 8 -9 18 5z m-735 -33 c0 -8 -5 -12 -10 -9 -6 4 -8 11 -5 16 9 14
15 11 15 -7z m30 -29 c-7 -8 -9 -19 -5 -25 3 -5 0 -10 -8 -10 -23 0 -30 31
-10 45 22 16 38 8 23 -10z m61 -33 c-7 -2 -19 -1 -29 3 -14 5 -14 7 -2 15 9 5
20 4 28 -3 10 -8 11 -12 3 -15z m-283 -57 c12 -14 18 -25 13 -25 -6 0 -17 9
-25 21 -8 12 -19 18 -25 14 -6 -3 -11 -1 -11 4 0 19 26 12 48 -14z m252 5 c0
-5 -5 -10 -11 -10 -5 0 -7 5 -4 10 3 6 8 10 11 10 2 0 4 -4 4 -10z m-180 -20
c-20 -13 -30 -12 -30 1 0 5 4 8 9 4 5 -3 13 0 16 6 4 5 10 8 13 4 4 -3 0 -10
-8 -15z m665 0 c3 -5 1 -10 -4 -10 -6 0 -11 5 -11 10 0 6 2 10 4 10 3 0 8 -4
11 -10z m-454 -52 c-4 -13 -6 -30 -3 -38 5 -13 3 -13 -11 -1 -9 7 -14 18 -11
23 3 5 -3 12 -15 15 -25 6 -26 10 -6 29 13 14 15 13 15 -7 0 -17 3 -19 14 -9
8 6 12 19 10 28 -5 16 -5 16 5 0 7 -10 8 -25 2 -40z m-210 12 c20 0 81 -49 62
-50 -7 0 -13 5 -13 11 0 5 -5 7 -10 4 -6 -4 -8 -10 -5 -15 3 -4 -2 -13 -10
-20 -9 -8 -15 -8 -15 -2 0 6 6 13 13 15 7 3 5 6 -5 6 -23 1 -58 36 -58 58 0
13 3 14 12 5 7 -7 20 -12 29 -12z m650 3 c13 -16 12 -17 -3 -4 -10 7 -18 15
-18 17 0 8 8 3 21 -13z m-313 -22 c2 -13 -2 -28 -8 -35 -9 -8 -10 -4 -5 17 5
17 3 27 -4 27 -6 0 -11 5 -11 11 0 20 25 2 28 -20z m81 -8 c2 -1 -2 -9 -9 -18
-14 -17 -40 -20 -40 -5 0 6 7 10 15 10 8 0 15 5 15 10 0 6 -4 10 -10 10 -5 0
-10 5 -10 11 0 8 6 7 18 -2 9 -7 19 -15 21 -16z m26 17 c3 -5 1 -10 -4 -10 -6
0 -11 5 -11 10 0 6 2 10 4 10 3 0 8 -4 11 -10z m-170 -42 c3 -9 12 -19 20 -22
16 -6 21 -36 7 -36 -13 0 -32 23 -32 38 0 7 -6 20 -14 28 -17 16 -30 19 -21 4
3 -5 1 -10 -4 -10 -13 0 -13 3 -5 24 5 12 9 13 25 3 11 -7 22 -19 24 -29z
m359 26 c5 -14 4 -15 -9 -4 -17 14 -19 20 -6 20 5 0 12 -7 15 -16z m-179 -28
c8 3 19 3 26 -1 7 -5 -4 -13 -27 -21 -48 -17 -54 -17 -54 -3 0 15 34 40 38 29
2 -5 10 -6 17 -4z m-334 -30 c13 -15 14 -23 6 -28 -20 -13 -27 -9 -20 10 3 9
3 14 -2 10 -6 -6 -35 14 -35 25 0 13 37 0 51 -17z m135 -3 c-10 -10 -19 5 -10
18 6 11 8 11 12 0 2 -7 1 -15 -2 -18z m-96 -33 c0 -5 7 -7 16 -3 11 4 15 2 12
-7 -2 -7 -14 -17 -26 -21 -17 -6 -20 -5 -15 8 5 12 1 14 -18 9 -23 -7 -23 -6
-5 8 23 18 36 20 36 6z m460 -50 c0 -5 -4 -10 -10 -10 -5 0 -10 5 -10 10 0 6
5 10 10 10 6 0 10 -4 10 -10z m-215 -10 c3 -5 1 -10 -4 -10 -6 0 -11 5 -11 10
0 6 2 10 4 10 3 0 8 -4 11 -10z m-55 -74 c0 -3 -4 -8 -10 -11 -5 -3 -10 -1
-10 4 0 6 5 11 10 11 6 0 10 -2 10 -4z m80 -57 c0 -5 -4 -9 -10 -9 -5 0 -10 7
-10 16 0 8 5 12 10 9 6 -3 10 -10 10 -16z m-62 -14 c-3 -3 -9 2 -12 12 -6 14
-5 15 5 6 7 -7 10 -15 7 -18z m182 15 c0 -5 -6 -10 -14 -10 -8 0 -18 5 -21 10
-3 6 3 10 14 10 12 0 21 -4 21 -10z m-150 -30 c0 -5 -4 -10 -10 -10 -5 0 -10
5 -10 10 0 6 5 10 10 10 6 0 10 -4 10 -10z m80 -70 c0 -5 6 -10 14 -10 19 0
28 -14 20 -35 -6 -15 -8 -15 -25 1 -10 9 -16 21 -13 26 4 6 -2 7 -15 3 -20 -6
-28 4 -14 18 10 11 33 8 33 -3z m630 -1154 c0 -18 -19 -31 -28 -21 -4 4 -1 10
6 12 6 3 10 9 6 14 -3 5 0 9 5 9 6 0 11 -6 11 -14z m30 -36 c0 -5 -5 -10 -11
-10 -5 0 -7 5 -4 10 3 6 8 10 11 10 2 0 4 -4 4 -10z m-30 -20 c0 -5 -5 -10
-11 -10 -5 0 -7 5 -4 10 3 6 8 10 11 10 2 0 4 -4 4 -10z m70 -14 c0 -3 -4 -8
-10 -11 -5 -3 -10 -1 -10 4 0 6 5 11 10 11 6 0 10 -2 10 -4z m47 -28 c-3 -7
-5 -2 -5 12 0 14 2 19 5 13 2 -7 2 -19 0 -25z m93 -9 c0 -4 -6 -9 -14 -12 -10
-4 -18 4 -25 24 l-10 29 24 -17 c13 -10 25 -21 25 -24z m-275 -8 c-3 -6 -11
-11 -17 -11 -6 0 -6 6 2 15 14 17 26 13 15 -4z m70 -1 c-3 -5 -13 -10 -21 -10
-8 0 -14 -4 -14 -10 0 -5 -6 -10 -12 -10 -7 1 -2 10 11 20 25 21 46 27 36 10z
m78 -12 c-13 -12 -25 -19 -28 -16 -8 7 23 38 38 38 6 0 2 -10 -10 -22z m87 13
c0 -12 -20 -25 -27 -18 -7 7 6 27 18 27 5 0 9 -4 9 -9z m118 -52 c2 -9 -2 -8
-11 4 -8 9 -17 17 -21 17 -9 0 -36 26 -36 36 0 11 64 -42 68 -57z m-393 11
c-3 -5 2 -10 12 -11 14 0 15 -2 3 -6 -8 -3 -18 -11 -22 -17 -5 -7 -8 -4 -8 7
0 9 -6 17 -12 17 -9 0 -8 4 2 10 20 13 33 13 25 0z m232 -4 c0 -8 -6 -12 -15
-9 -11 5 -11 7 0 14 7 5 13 9 14 9 0 0 1 -6 1 -14z m238 -57 c30 -23 55 -43
55 -46 0 -5 -54 31 -93 64 -48 39 -20 26 38 -18z m-435 11 c0 -5 -5 -10 -11
-10 -5 0 -7 5 -4 10 3 6 8 10 11 10 2 0 4 -4 4 -10z m-49 -27 c-27 -46 -28
-47 -52 -24 -12 11 -18 21 -11 21 6 0 14 -5 17 -10 5 -8 11 -7 21 1 7 6 11 15
8 20 -3 5 2 9 11 9 12 0 13 -4 6 -17z m-252 -17 c18 -21 -11 -41 -39 -26 -21
11 -21 12 -3 25 23 18 28 18 42 1z m288 8 c-3 -3 -12 -4 -19 -1 -8 3 -5 6 6 6
11 1 17 -2 13 -5z m-108 -68 c1 19 44 25 61 8 13 -13 11 -14 -19 -8 -21 4 -32
3 -28 -2 3 -6 2 -15 -2 -22 -5 -9 -12 -7 -25 7 -10 11 -15 25 -10 32 5 9 10 7
15 -7 4 -10 8 -14 8 -8z m-160 -3 c-4 -24 3 -31 24 -25 20 5 21 4 8 -12 -8 -9
-16 -14 -19 -11 -3 3 -11 0 -19 -7 -19 -16 -29 -2 -12 18 11 14 11 18 1 21 -6
3 -10 9 -6 14 6 11 24 12 23 2z m141 -22 c0 -5 -7 -14 -15 -21 -12 -10 -15
-10 -15 2 0 8 3 18 7 21 9 10 23 9 23 -2z m745 -11 c3 -6 -1 -7 -9 -4 -18 7
-21 14 -7 14 6 0 13 -4 16 -10z m-949 -12 c4 -7 3 -8 -4 -4 -7 4 -12 2 -12 -5
0 -7 -3 -9 -7 -6 -3 4 -11 3 -18 -1 -6 -4 -2 1 8 11 23 20 24 20 33 5z m989
-18 c3 -6 -1 -7 -9 -4 -18 7 -21 14 -7 14 6 0 13 -4 16 -10z m-960 -11 c11
-17 -5 -25 -16 -9 -8 11 -12 12 -16 3 -2 -7 -9 -13 -15 -13 -6 0 -6 6 2 15 15
18 36 20 45 4z m-92 -5 c13 -5 13 -10 -5 -40 -11 -19 -25 -34 -31 -34 -7 0 -7
4 1 12 17 17 15 28 -5 28 -15 0 -14 2 3 19 23 24 19 22 37 15z m1160 -66 c10
-10 14 -18 10 -18 -11 0 -93 75 -93 85 0 8 35 -21 83 -67z m-1243 53 c0 -5 -7
-12 -16 -15 -14 -5 -15 -4 -4 9 14 17 20 19 20 6z m300 -16 c0 -19 -4 -23 -17
-18 -11 4 -12 8 -5 11 7 2 12 10 12 18 0 8 2 14 5 14 3 0 5 -11 5 -25z m57 -5
c-1 -22 -17 -28 -17 -7 0 12 9 27 16 27 2 0 2 -9 1 -20z m-27 -5 c0 -8 -4 -15
-10 -15 -5 0 -7 7 -4 15 4 8 8 15 10 15 2 0 4 -7 4 -15z m-184 -2 c-11 -11
-46 -14 -46 -3 0 6 12 10 27 10 14 0 23 -3 19 -7z m96 -19 c-12 -8 -28 -13
-35 -11 -7 3 -1 9 13 15 37 16 47 14 22 -4z m53 -13 c3 -5 2 -12 -3 -15 -5 -3
-9 1 -9 9 0 17 3 19 12 6z m-283 -8 c-6 -2 -10 -9 -6 -14 3 -5 1 -9 -5 -9 -5
0 -12 4 -15 9 -6 9 10 19 29 19 6 0 4 -2 -3 -5z m102 -17 c-3 -9 -12 -16 -19
-16 -7 0 -22 -3 -32 -6 -10 -4 -2 4 17 18 39 28 43 28 34 4z m153 18 c-3 -3
-12 -4 -19 -1 -8 3 -5 6 6 6 11 1 17 -2 13 -5z m1051 -43 c18 -13 31 -25 28
-28 -7 -7 -76 48 -76 61 0 7 3 8 8 1 4 -6 22 -21 40 -34z m-1148 19 c0 -5 -4
-10 -10 -10 -5 0 -10 5 -10 10 0 6 5 10 10 10 6 0 10 -4 10 -10z m-40 -20 c-8
-6 -22 -10 -30 -9 -9 0 -5 6 10 14 27 14 44 10 20 -5z m-78 -32 c-7 -7 -12 -8
-12 -2 0 14 12 26 19 19 2 -3 -1 -11 -7 -17z m15 -30 c-3 -8 -6 -5 -6 6 -1 11
2 17 5 13 3 -3 4 -12 1 -19z m123 12 c0 -5 -4 -10 -10 -10 -5 0 -10 5 -10 10
0 6 5 10 10 10 6 0 10 -4 10 -10z m-183 -116 c-3 -3 -12 -4 -19 -1 -8 3 -5 6
6 6 11 1 17 -2 13 -5z m1540 0 c-3 -3 -12 -4 -19 -1 -8 3 -5 6 6 6 11 1 17 -2
13 -5z m151 -22 c18 -23 15 -43 -5 -35 -18 7 -52 42 -53 55 0 11 45 -4 58 -20z
m-83 -182 c3 -5 2 -10 -4 -10 -5 0 -13 5 -16 10 -3 6 -2 10 4 10 5 0 13 -4 16
-10z m285 -21 c0 -6 -4 -7 -10 -4 -5 3 -10 11 -10 16 0 6 5 7 10 4 6 -3 10
-11 10 -16z m770 -493 c0 -11 -19 -15 -25 -6 -3 5 1 10 9 10 9 0 16 -2 16 -4z"/>
<path d="M6237 6842 c-10 -10 -17 -22 -17 -26 0 -9 49 27 50 37 0 13 -17 7
-33 -11z"/>
<path d="M6287 6813 c-4 -3 -7 -11 -7 -17 0 -6 5 -5 12 2 6 6 9 14 7 17 -3 3
-9 2 -12 -2z"/>
<path d="M6250 6764 c0 -8 5 -12 10 -9 6 4 8 11 5 16 -9 14 -15 11 -15 -7z"/>
<path d="M6194 6755 c-16 -12 -17 -14 -3 -15 9 0 19 7 23 15 7 19 5 19 -20 0z"/>
<path d="M6313 6735 c-36 -32 -17 -32 22 0 17 14 25 25 18 25 -7 0 -25 -11
-40 -25z"/>
<path d="M6358 6683 c7 -3 16 -2 19 1 4 3 -2 6 -13 5 -11 0 -14 -3 -6 -6z"/>
<path d="M6031 6621 c-9 -16 -8 -18 9 -14 21 6 26 18 11 28 -6 3 -15 -3 -20
-14z"/>
<path d="M6186 6559 c-11 -10 -17 -21 -14 -24 2 -3 15 6 28 20 27 29 14 33
-14 4z"/>
<path d="M6250 6570 c-9 -6 -10 -10 -3 -10 6 0 15 5 18 10 8 12 4 12 -15 0z"/>
<path d="M6060 6482 c0 -5 7 -9 15 -9 8 0 15 4 15 9 0 4 -7 8 -15 8 -8 0 -15
-4 -15 -8z"/>
<path d="M6236 6463 c-6 -14 -5 -15 5 -6 7 7 10 15 7 18 -3 3 -9 -2 -12 -12z"/>
<path d="M5995 6460 c-3 -5 1 -10 10 -10 9 0 13 5 10 10 -3 6 -8 10 -10 10 -2
0 -7 -4 -10 -10z"/>
<path d="M6085 6450 c-3 -5 -1 -10 4 -10 6 0 11 5 11 10 0 6 -2 10 -4 10 -3 0
-8 -4 -11 -10z"/>
<path d="M5900 6430 c-9 -6 -10 -10 -3 -10 6 0 15 5 18 10 8 12 4 12 -15 0z"/>
<path d="M6300 6410 c-19 -15 -21 -20 -9 -20 16 0 46 27 38 35 -2 2 -15 -5
-29 -15z"/>
<path d="M5872 6384 c-11 -23 -10 -24 8 -14 21 11 26 25 11 34 -4 3 -13 -6
-19 -20z"/>
<path d="M5835 6350 c3 -5 8 -10 11 -10 2 0 4 5 4 10 0 6 -5 10 -11 10 -5 0
-7 -4 -4 -10z"/>
<path d="M6290 6350 c-13 -8 -12 -10 3 -10 9 0 17 5 17 10 0 12 -1 12 -20 0z"/>
<path d="M5818 6323 c7 -3 16 -2 19 1 4 3 -2 6 -13 5 -11 0 -14 -3 -6 -6z"/>
<path d="M6256 6314 c-4 -10 -1 -14 6 -12 15 5 23 28 10 28 -5 0 -13 -7 -16
-16z"/>
<path d="M6110 6069 c0 -5 5 -7 10 -4 6 3 10 8 10 11 0 2 -4 4 -10 4 -5 0 -10
-5 -10 -11z"/>
<path d="M5995 6060 c3 -5 8 -10 11 -10 2 0 4 5 4 10 0 6 -5 10 -11 10 -5 0
-7 -4 -4 -10z"/>
<path d="M5687 5823 c-12 -12 -7 -22 8 -17 8 4 15 10 15 15 0 11 -14 12 -23 2z"/>
<path d="M5460 5630 c0 -5 5 -10 10 -10 6 0 10 5 10 10 0 6 -4 10 -10 10 -5 0
-10 -4 -10 -10z"/>
<path d="M5357 5603 c-4 -3 -7 -11 -7 -17 0 -6 5 -5 12 2 6 6 9 14 7 17 -3 3
-9 2 -12 -2z"/>
<path d="M5343 5552 c-8 -5 -9 -13 -3 -22 6 -10 13 -11 19 -5 13 13 -1 36 -16
27z"/>
<path d="M5350 5500 c-9 -6 -10 -10 -3 -10 6 0 15 5 18 10 8 12 4 12 -15 0z"/>
<path d="M5295 5480 c-16 -7 -17 -9 -3 -9 9 -1 20 4 23 9 7 11 7 11 -20 0z"/>
<path d="M5285 5400 c-3 -6 1 -7 9 -4 18 7 21 14 7 14 -6 0 -13 -4 -16 -10z"/>
<path d="M3815 6061 c-3 -5 4 -13 16 -16 28 -9 33 -2 9 13 -11 6 -21 8 -25 3z"/>
<path d="M2220 5400 c0 -5 5 -10 10 -10 6 0 10 5 10 10 0 6 -4 10 -10 10 -5 0
-10 -4 -10 -10z"/>
<path d="M2175 5373 c11 -3 25 -9 32 -15 7 -5 13 -5 17 0 7 12 -18 22 -47 21
-21 -1 -21 -2 -2 -6z"/>
<path d="M1912 5190 c0 -14 2 -19 5 -12 2 6 2 18 0 25 -3 6 -5 1 -5 -13z"/>
<path d="M2000 5109 c0 -5 5 -7 10 -4 6 3 10 8 10 11 0 2 -4 4 -10 4 -5 0 -10
-5 -10 -11z"/>
<path d="M1900 4689 c0 -5 5 -7 10 -4 6 3 10 8 10 11 0 2 -4 4 -10 4 -5 0 -10
-5 -10 -11z"/>
<path d="M2370 4280 c0 -5 5 -10 10 -10 6 0 10 5 10 10 0 6 -4 10 -10 10 -5 0
-10 -4 -10 -10z"/>
<path d="M2588 2893 c7 -3 16 -2 19 1 4 3 -2 6 -13 5 -11 0 -14 -3 -6 -6z"/>
<path d="M4251 8754 c0 -11 3 -14 6 -6 3 7 2 16 -1 19 -3 4 -6 -2 -5 -13z"/>
<path d="M6668 8493 c-16 -4 -16 -6 -4 -19 18 -18 22 -18 29 1 7 17 -1 23 -25
18z"/>
<path d="M6606 8469 c-17 -16 -17 -19 -3 -19 9 0 21 9 27 20 13 25 1 25 -24
-1z"/>
<path d="M6631 8431 c-7 -5 -9 -11 -5 -14 5 -3 15 1 22 9 14 16 5 18 -17 5z"/>
<path d="M6553 8363 c-14 -5 -18 -23 -5 -23 5 0 17 7 28 15 14 11 15 14 4 14
-8 0 -21 -3 -27 -6z"/>
<path d="M6560 8315 c-14 -8 -19 -14 -11 -15 7 0 11 -6 8 -15 -11 -28 12 -25
27 4 9 16 21 31 28 34 7 3 4 6 -7 6 -11 0 -31 -6 -45 -14z"/>
<path d="M6518 8236 c-22 -16 -23 -26 -2 -26 15 0 44 23 44 34 0 10 -25 6 -42
-8z"/>
<path d="M6423 8225 c-16 -18 -17 -33 -1 -17 7 7 20 12 30 12 10 0 18 5 18 10
0 15 -33 11 -47 -5z"/>
<path d="M6300 8213 c-13 -15 -12 -16 4 -10 10 4 20 7 22 7 2 0 4 5 4 10 0 15
-13 12 -30 -7z"/>
<path d="M6547 8209 c-9 -6 -27 -11 -40 -13 -30 -4 -57 -16 -57 -27 0 -5 11
-7 24 -5 34 6 96 37 96 47 0 11 -1 11 -23 -2z"/>
<path d="M6488 8136 c-16 -13 -28 -26 -28 -30 0 -10 48 -7 55 4 3 6 1 10 -6
10 -6 0 -1 9 12 20 17 13 20 19 9 20 -8 0 -27 -11 -42 -24z"/>
<path d="M6403 8123 c-13 -8 -23 -22 -23 -29 0 -8 -6 -14 -14 -14 -8 0 -16 -7
-20 -15 -7 -20 23 -20 69 -1 33 14 52 45 20 32 -8 -3 -15 -1 -15 3 0 5 7 12
16 15 8 3 12 10 9 16 -8 13 -16 12 -42 -7z"/>
<path d="M6197 8103 c-10 -9 -9 -23 2 -23 5 0 11 7 15 15 5 15 -5 20 -17 8z"/>
<path d="M6286 8075 c-3 -8 -15 -15 -26 -15 -11 0 -20 -6 -20 -12 0 -12 -40
-44 -94 -75 -14 -9 -16 -13 -6 -13 8 0 -8 -12 -35 -26 -28 -15 -53 -32 -57
-38 -13 -19 -9 -29 7 -16 9 7 18 10 22 6 3 -3 1 -6 -5 -6 -7 0 -12 -8 -12 -18
0 -9 -11 -26 -25 -36 -40 -30 -29 -38 20 -14 25 12 45 26 45 30 0 5 16 24 35
43 20 19 34 28 33 22 -2 -7 2 -12 7 -12 6 0 9 3 8 7 -2 4 11 15 27 25 36 21
39 36 6 27 -25 -6 -47 13 -29 25 19 12 76 56 107 83 22 20 26 27 15 28 -9 0
-19 -7 -23 -15z m-143 -157 c-17 -17 -37 -28 -44 -25 -10 4 -7 8 8 12 13 4 21
11 18 15 -3 5 4 11 15 15 11 3 20 11 20 17 0 6 3 8 7 4 4 -3 -7 -21 -24 -38z"/>
<path d="M6315 8050 c-3 -5 -1 -10 4 -10 6 0 11 5 11 10 0 6 -2 10 -4 10 -3 0
-8 -4 -11 -10z"/>
<path d="M6556 8045 c-16 -12 -17 -15 -4 -15 9 0 18 7 22 15 7 18 6 18 -18 0z"/>
<path d="M6402 8039 c-13 -5 -20 -14 -16 -20 4 -7 9 -7 13 -2 3 6 20 15 36 21
21 7 24 10 10 11 -11 0 -30 -4 -43 -10z"/>
<path d="M6144 8025 c-18 -14 -18 -14 3 -15 23 0 39 15 25 24 -5 3 -18 -1 -28
-9z"/>
<path d="M6506 8015 c4 -8 1 -15 -5 -15 -6 0 -11 -7 -11 -15 0 -12 7 -14 28
-9 41 10 75 28 80 42 3 11 -3 10 -26 -2 -38 -20 -42 -20 -42 -1 0 8 -7 15 -15
15 -9 0 -12 -6 -9 -15z"/>
<path d="M6070 7985 c-7 -8 -18 -15 -25 -15 -7 0 -15 -6 -18 -14 -4 -10 0 -12
14 -9 10 3 19 10 19 15 0 6 7 7 16 4 8 -3 12 -2 9 4 -3 6 3 10 15 10 12 0 18
5 15 10 -9 15 -31 12 -45 -5z"/>
<path d="M6391 7991 c-7 -5 -10 -14 -6 -21 6 -9 10 -9 17 1 7 10 8 8 3 -6 -20
-55 -18 -60 8 -29 15 18 27 39 27 48 0 17 -26 21 -49 7z"/>
<path d="M6267 7937 c-29 -18 -44 -34 -38 -40 9 -9 76 28 100 57 22 26 -7 19
-62 -17z"/>
<path d="M6566 7951 c-4 -7 -5 -15 -2 -18 9 -9 19 4 14 18 -4 11 -6 11 -12 0z"/>
<path d="M6448 7931 c-37 -17 -37 -17 -17 -35 20 -16 22 -16 52 3 27 17 29 21
12 22 -11 0 -14 3 -7 6 13 5 17 24 5 22 -5 0 -25 -8 -45 -18z"/>
<path d="M5948 7895 c-34 -30 -43 -45 -34 -48 8 -3 26 5 41 19 14 13 29 24 33
24 4 0 13 9 19 19 24 38 -11 29 -59 -14z"/>
<path d="M6332 7884 c-13 -6 -20 -14 -15 -17 8 -5 50 20 42 26 -2 2 -15 -2
-27 -9z"/>
<path d="M6145 7881 c-3 -5 -1 -12 5 -16 5 -3 10 1 10 9 0 18 -6 21 -15 7z"/>
<path d="M6486 7874 c-23 -22 -20 -24 14 -13 17 6 30 15 30 20 0 14 -27 10
-44 -7z"/>
<path d="M6214 7843 c-27 -20 -41 -33 -30 -29 10 3 24 2 31 -4 9 -7 20 -3 39
15 14 13 26 28 26 34 0 23 -19 18 -66 -16z"/>
<path d="M6480 7809 c-19 -10 -31 -19 -25 -19 5 0 0 -7 -11 -15 -19 -14 -19
-14 3 -15 12 0 25 5 28 11 4 6 14 8 22 5 8 -3 11 -1 8 5 -4 6 1 19 11 30 22
24 9 23 -36 -2z"/>
<path d="M5930 7790 c-24 -15 -7 -18 20 -3 14 7 18 13 10 13 -8 0 -22 -4 -30
-10z"/>
<path d="M6135 7759 c-16 -16 -26 -29 -21 -29 13 0 67 48 59 53 -5 3 -21 -8
-38 -24z"/>
<path d="M6311 7711 c-7 -5 -9 -11 -4 -14 5 -3 15 -2 22 2 7 5 9 11 4 14 -5 3
-15 2 -22 -2z"/>
<path d="M6056 7681 c-20 -8 -16 -12 17 -24 12 -5 16 -3 11 4 -4 6 0 15 7 20
12 7 11 9 -1 8 -8 0 -24 -4 -34 -8z"/>
<path d="M6405 7650 c-3 -5 1 -10 9 -10 9 0 16 5 16 10 0 6 -4 10 -9 10 -6 0
-13 -4 -16 -10z"/>
<path d="M2840 7499 c0 -5 5 -7 10 -4 6 3 10 8 10 11 0 2 -4 4 -10 4 -5 0 -10
-5 -10 -11z"/>
<path d="M2856 7472 c-4 -7 -12 -10 -17 -7 -5 3 -6 -2 -2 -11 5 -13 3 -15 -8
-9 -11 6 -12 5 -1 -6 10 -11 15 -11 28 3 9 9 14 22 12 29 -3 10 -6 10 -12 1z"/>
<path d="M2796 7390 c-3 -14 -8 -36 -11 -50 -5 -19 -1 -15 14 12 12 20 25 40
31 43 17 10 11 24 -9 22 -12 -1 -21 -11 -25 -27z"/>
<path d="M2851 7352 c0 -7 -9 -12 -18 -10 -13 2 -19 -4 -20 -22 -1 -14 0 -18
3 -7 3 9 10 17 15 17 5 0 9 -8 9 -17 1 -17 1 -17 11 0 6 10 8 25 6 35 -3 9 -5
11 -6 4z"/>
<path d="M2797 7224 c-10 -19 -13 -33 -8 -30 5 4 11 3 14 -1 2 -5 2 -2 0 5 -1
7 2 23 8 34 6 11 9 22 7 24 -3 2 -12 -12 -21 -32z"/>
<path d="M2760 7155 c-5 -14 -14 -25 -20 -25 -5 0 -10 -12 -10 -26 0 -16 -7
-28 -18 -31 -12 -3 -28 -35 -51 -106 -47 -144 -45 -135 -32 -117 14 21 20 9 9
-20 -7 -20 -11 -22 -18 -10 -7 11 -11 3 -16 -28 -4 -23 -11 -45 -15 -48 -5 -3
-9 -15 -9 -28 0 -12 -5 -27 -12 -34 -6 -6 -11 -34 -11 -62 0 -27 -3 -47 -8
-44 -5 3 -9 -4 -9 -15 0 -11 -4 -23 -10 -26 -16 -10 -12 -35 5 -29 11 5 15 -1
14 -22 -1 -17 -3 -22 -6 -11 -8 29 -19 19 -20 -18 -1 -19 3 -35 8 -35 5 0 9 5
9 12 0 6 3 8 6 5 4 -4 1 -13 -5 -21 -8 -9 -8 -16 -2 -20 5 -4 15 2 21 11 10
16 10 15 5 -4 -4 -14 -2 -23 4 -23 7 0 11 22 11 54 0 61 7 86 24 86 12 0 49
113 66 199 5 29 13 57 17 64 3 6 10 27 14 46 4 20 26 90 48 156 23 66 41 126
41 134 0 14 -40 -63 -54 -103 -4 -10 -9 -16 -13 -13 -6 7 43 134 59 152 11 12
10 25 -2 25 -6 0 -15 -11 -20 -25z m-52 -208 c-13 -43 -32 -51 -22 -9 7 27 24
55 30 49 2 -2 -2 -20 -8 -40z m-26 -92 c-11 -21 -25 -4 -16 20 4 10 10 13 16
7 7 -7 7 -16 0 -27z m-21 -44 c-8 -5 -11 -16 -8 -25 3 -8 -1 -32 -10 -53 -8
-21 -19 -69 -23 -106 -4 -38 -13 -74 -20 -80 -14 -14 -8 41 15 133 8 30 19 79
26 108 8 40 14 51 23 42 8 -8 7 -13 -3 -19z m-67 -143 c-3 -4 -9 -8 -15 -8 -5
0 -9 4 -9 8 0 5 7 9 15 9 8 0 12 -4 9 -9z m-20 -43 c-4 -8 -8 -15 -10 -15 -2
0 -4 7 -4 15 0 8 4 15 10 15 5 0 7 -7 4 -15z m3 -71 c-3 -3 -12 -4 -19 -1 -8
3 -5 6 6 6 11 1 17 -2 13 -5z"/>
<path d="M2490 6439 c0 -9 7 -22 15 -29 19 -16 19 0 0 26 -12 16 -14 16 -15 3z"/>
<path d="M2481 6361 c-9 -16 -7 -17 14 -13 28 5 33 17 10 26 -8 3 -19 -2 -24
-13z"/>
<path d="M2563 6355 c0 -7 6 -11 14 -8 7 3 13 6 13 8 0 2 -6 5 -13 8 -8 3 -14
-1 -14 -8z"/>
<path d="M2518 6333 c-10 -2 -18 -10 -18 -18 0 -10 5 -11 25 -2 14 7 25 15 25
20 0 7 -4 7 -32 0z"/>
<path d="M2460 6170 c0 -5 5 -10 11 -10 5 0 7 5 4 10 -3 6 -8 10 -11 10 -2 0
-4 -4 -4 -10z"/>
<path d="M2535 6150 c-3 -6 1 -7 9 -4 18 7 21 14 7 14 -6 0 -13 -4 -16 -10z"/>
<path d="M2628 6108 c9 -9 15 -9 24 0 9 9 7 12 -12 12 -19 0 -21 -3 -12 -12z"/>
<path d="M2684 6029 c-3 -6 -1 -16 5 -22 8 -8 11 -5 11 11 0 24 -5 28 -16 11z"/>
<path d="M3320 5650 c0 -5 5 -10 10 -10 6 0 10 5 10 10 0 6 -4 10 -10 10 -5 0
-10 -4 -10 -10z"/>
<path d="M3331 5592 c-1 -8 -10 -11 -26 -8 -14 3 -25 1 -25 -4 0 -6 11 -12 25
-16 14 -3 25 -12 25 -20 0 -8 5 -14 10 -14 11 0 11 14 0 50 -4 14 -8 19 -9 12z"/>
<path d="M1790 5581 c0 -5 7 -12 16 -15 24 -9 27 -7 10 9 -17 17 -26 19 -26 6z"/>
<path d="M3430 5580 c0 -5 5 -10 10 -10 6 0 10 5 10 10 0 6 -4 10 -10 10 -5 0
-10 -4 -10 -10z"/>
<path d="M1767 5563 c-3 -3 5 -17 18 -31 20 -21 26 -23 39 -13 22 18 20 30 -3
24 -10 -2 -25 2 -33 11 -9 8 -18 13 -21 9z"/>
<path d="M3382 5541 c16 -25 31 -27 26 -4 -2 10 -11 19 -21 21 -16 3 -17 1 -5
-17z"/>
<path d="M3430 5550 c0 -5 5 -10 11 -10 5 0 7 5 4 10 -3 6 -8 10 -11 10 -2 0
-4 -4 -4 -10z"/>
<path d="M3276 5539 c2 -4 0 -10 -6 -14 -6 -4 -4 -12 5 -22 9 -8 19 -12 23 -9
3 4 0 12 -8 17 -11 8 -12 12 -2 16 17 7 15 20 -3 20 -8 0 -12 -4 -9 -8z"/>
<path d="M3420 5503 c0 -10 -3 -29 -6 -43 -6 -24 -6 -25 9 -5 18 22 23 65 7
65 -5 0 -10 -8 -10 -17z"/>
<path d="M3248 5493 c7 -3 16 -2 19 1 4 3 -2 6 -13 5 -11 0 -14 -3 -6 -6z"/>
<path d="M3310 5495 c0 -3 7 -14 16 -23 15 -14 16 -14 13 3 -4 17 -29 35 -29
20z"/>
<path d="M3296 5461 c-5 -7 -3 -18 3 -24 14 -14 20 -6 11 17 -5 15 -9 16 -14
7z"/>
<path d="M1736 5443 c-4 -9 -2 -21 4 -27 7 -7 10 -2 10 17 0 31 -5 34 -14 10z"/>
<path d="M3441 5444 c0 -11 3 -14 6 -6 3 7 2 16 -1 19 -3 4 -6 -2 -5 -13z"/>
<path d="M3067 5430 c-8 -11 -17 -17 -20 -14 -4 4 -10 -2 -14 -12 -3 -10 -15
-25 -25 -32 -19 -14 -25 -52 -7 -52 5 0 8 4 5 9 -11 17 6 43 24 38 12 -3 22 4
31 19 15 29 29 32 22 4 -3 -11 -9 -20 -14 -20 -5 0 -9 -6 -9 -12 0 -8 16 -14
42 -15 26 -1 36 2 28 7 -11 7 -9 13 11 29 13 12 34 24 46 27 23 6 38 30 24 39
-5 3 -12 -2 -15 -11 -4 -10 -13 -13 -26 -9 -15 5 -18 3 -14 -9 6 -16 -20 -24
-29 -8 -2 4 -3 2 -1 -3 1 -6 -4 -19 -12 -30 -13 -18 -14 -17 -14 7 0 15 -4 29
-10 33 -5 3 -7 12 -3 20 8 21 -3 18 -20 -5z"/>
<path d="M3332 5422 c-13 -10 -20 -21 -16 -25 11 -11 24 -8 24 4 0 7 8 18 18
25 9 7 13 13 7 13 -5 1 -20 -7 -33 -17z"/>
<path d="M3240 5420 c0 -5 6 -10 14 -10 8 0 18 5 21 10 3 6 -3 10 -14 10 -12
0 -21 -4 -21 -10z"/>
<path d="M3656 5415 c4 -8 8 -15 10 -15 2 0 4 7 4 15 0 8 -4 15 -10 15 -5 0
-7 -7 -4 -15z"/>
<path d="M3363 5395 c-11 -11 -10 -16 5 -24 14 -9 14 -12 3 -20 -9 -6 -10 -11
-2 -15 6 -4 18 -1 26 8 16 16 20 30 6 22 -5 -3 -11 1 -15 9 -3 8 -2 14 2 14 4
-1 14 -1 22 0 13 1 13 2 0 11 -20 13 -33 12 -47 -5z"/>
<path d="M3157 5368 c-6 -18 12 -50 24 -43 6 4 5 13 -1 24 -5 10 -6 21 -3 25
3 3 1 6 -4 6 -6 0 -13 -6 -16 -12z"/>
<path d="M3650 5371 c0 -10 19 -25 25 -20 1 2 -3 10 -11 17 -8 7 -14 8 -14 3z"/>
<path d="M3215 5350 c-8 -13 15 -24 27 -12 6 6 4 11 -6 15 -8 3 -18 2 -21 -3z"/>
<path d="M3528 5319 c3 -17 0 -29 -7 -29 -6 0 -11 -7 -11 -15 0 -8 5 -15 10
-15 6 0 10 6 10 13 0 8 3 7 10 -3 5 -8 12 -11 16 -7 4 4 2 13 -4 19 -7 7 -12
22 -12 34 0 13 -4 25 -8 28 -5 3 -6 -8 -4 -25z"/>
<path d="M3037 5333 c-13 -13 -7 -35 8 -30 8 4 17 2 20 -3 9 -14 -17 -49 -40
-53 -11 -3 -5 -4 13 -4 17 1 32 5 32 10 0 4 4 6 10 2 5 -3 7 -12 3 -20 -3 -9
0 -22 7 -30 11 -14 7 -19 -12 -16 -16 2 -2 -38 14 -42 10 -3 16 -1 12 4 -3 5
-1 9 4 9 6 0 8 9 5 20 -3 11 0 20 6 20 6 0 11 7 11 15 0 18 -16 20 -23 3 -3
-8 -6 -6 -6 5 -1 9 4 17 10 17 5 0 8 4 5 9 -3 5 2 11 13 14 22 5 36 47 16 47
-8 0 -17 -5 -21 -12 -5 -7 -3 -8 6 -3 9 5 11 4 6 -3 -9 -14 -56 -16 -56 -3 0
6 5 13 10 16 16 10 12 28 -5 22 -8 -4 -17 -2 -20 3 -7 12 -19 13 -28 3z"/>
<path d="M3310 5319 c0 -18 2 -19 15 -9 15 12 12 30 -6 30 -5 0 -9 -10 -9 -21z"/>
<path d="M3560 5325 c-12 -14 -6 -35 9 -35 4 0 13 11 19 25 9 20 9 25 -2 25
-7 0 -19 -7 -26 -15z"/>
<path d="M3411 5323 c0 -7 -8 -13 -16 -13 -9 0 -15 -9 -14 -22 1 -17 2 -19 6
-5 7 25 20 21 26 -9 3 -19 -1 -28 -17 -34 -21 -9 -21 -9 2 -9 12 -1 22 -5 22
-11 0 -5 -6 -7 -14 -4 -15 6 -50 -59 -48 -89 0 -9 -3 -15 -9 -12 -8 6 -13 -11
-12 -42 1 -7 -2 -13 -6 -13 -11 0 -33 17 -34 26 -5 24 -57 -21 -57 -49 0 -11
-8 -26 -17 -33 -10 -7 -13 -13 -8 -13 18 0 47 28 40 39 -11 18 15 41 39 34 12
-4 24 -11 28 -17 4 -7 12 -6 23 3 15 13 17 12 14 -5 -3 -12 -12 -20 -23 -20
-11 0 -21 -6 -23 -13 -3 -7 1 -10 9 -7 9 4 15 0 15 -10 0 -9 -6 -14 -14 -11
-7 3 -13 1 -13 -4 0 -6 5 -10 10 -10 6 0 10 -10 10 -22 0 -20 1 -20 19 -4 15
13 20 14 24 4 4 -8 6 -7 6 5 1 9 8 17 16 17 8 0 15 5 15 10 0 6 16 25 35 42
20 17 33 33 31 36 -3 3 -11 0 -18 -5 -7 -5 -24 -7 -38 -3 l-25 6 23 19 c12 11
22 27 22 36 0 33 11 46 34 42 23 -5 44 12 31 25 -3 3 -10 0 -14 -7 -5 -8 -17
-11 -28 -7 -14 5 -23 -1 -33 -19 -7 -14 -20 -25 -28 -25 -11 0 -12 -3 -3 -13
12 -15 5 -27 -14 -27 -19 0 -5 60 14 61 10 0 11 2 4 6 -7 2 -13 12 -13 20 0
12 3 13 15 3 11 -10 18 -9 30 4 9 9 26 16 38 16 17 0 19 2 8 9 -11 7 -12 13
-4 23 16 20 24 66 13 73 -6 4 -24 7 -40 7 -18 1 -31 7 -33 17 -3 9 -5 10 -6 4z
m56 -50 c2 -6 -8 -10 -22 -10 -14 0 -25 5 -25 12 0 14 42 13 47 -2z m-28 -247
c-12 -10 -59 -15 -59 -6 0 5 14 10 32 10 17 0 29 -2 27 -4z m-72 -26 c-2 -11
-6 -22 -9 -26 -4 -3 -5 2 -3 13 2 10 4 21 4 26 1 4 3 7 6 7 3 0 4 -9 2 -20z"/>
<path d="M3283 5280 c-16 -25 -8 -45 20 -47 17 -2 19 0 7 7 -13 8 -13 13 -2
31 8 11 9 18 4 15 -6 -3 -12 -2 -14 4 -2 6 -9 1 -15 -10z"/>
<path d="M3020 5270 c0 -5 5 -10 11 -10 5 0 7 5 4 10 -3 6 -8 10 -11 10 -2 0
-4 -4 -4 -10z"/>
<path d="M3350 5265 c0 -8 4 -15 10 -15 5 0 7 7 4 15 -4 8 -8 15 -10 15 -2 0
-4 -7 -4 -15z"/>
<path d="M3577 5274 c-4 -4 -7 -17 -7 -28 1 -19 1 -20 11 -3 11 19 8 43 -4 31z"/>
<path d="M1425 5261 c-3 -5 -1 -12 5 -16 5 -3 10 1 10 9 0 18 -6 21 -15 7z"/>
<path d="M3777 5258 c4 -7 6 -22 5 -33 -2 -17 -1 -17 7 -5 16 22 13 50 -5 50
-10 0 -12 -4 -7 -12z"/>
<path d="M3740 5240 c-8 -5 -24 -7 -35 -4 -15 4 -17 3 -6 -5 12 -8 12 -12 2
-25 -7 -8 -16 -15 -19 -14 -4 1 -18 -3 -32 -9 -23 -10 -23 -11 -5 -16 11 -4
25 -15 32 -25 9 -16 8 -18 -11 -17 -11 1 -27 -3 -35 -9 -12 -9 -13 -6 -7 19 5
19 4 26 -2 20 -6 -5 -13 -25 -17 -44 -7 -32 -6 -34 9 -18 17 16 51 13 40 -4
-3 -5 2 -9 10 -9 9 0 16 -4 16 -9 0 -5 -8 -7 -19 -4 -12 3 -24 -3 -34 -18 -16
-22 -14 -39 4 -39 6 0 7 4 4 10 -4 6 1 7 11 3 11 -4 13 -8 6 -11 -7 -2 -12
-11 -12 -20 0 -13 -3 -12 -14 4 -8 10 -18 16 -22 12 -4 -4 -1 -15 7 -25 8 -9
9 -14 2 -10 -8 5 -9 -1 -4 -20 4 -15 12 -28 19 -31 16 -5 15 25 0 31 -7 3 1 6
19 6 17 1 35 6 39 13 5 8 2 9 -9 5 -22 -8 -22 7 1 60 10 26 22 41 30 38 6 -2
12 0 12 5 0 6 -7 10 -16 10 -9 0 -14 6 -11 13 2 6 10 11 16 10 13 -4 13 -6 1
36 -7 24 -6 37 3 47 7 7 18 21 26 30 11 13 15 13 22 2 7 -10 9 -9 9 5 0 19 -8
21 -30 7z m-75 -190 c-3 -5 -13 -10 -21 -10 -8 0 -12 5 -9 10 3 6 13 10 21 10
8 0 12 -4 9 -10z"/>
<path d="M3212 5226 c4 -23 45 -29 53 -8 3 8 3 17 0 20 -3 3 -5 1 -5 -5 0 -13
-33 -13 -43 1 -5 7 -7 3 -5 -8z"/>
<path d="M3515 5230 c-3 -5 -1 -10 4 -10 6 0 11 5 11 10 0 6 -2 10 -4 10 -3 0
-8 -4 -11 -10z"/>
<path d="M3324 5205 c-20 -30 -10 -47 11 -19 14 18 20 44 10 44 -2 0 -12 -11
-21 -25z"/>
<path d="M3546 5204 c-8 -21 -8 -24 3 -24 5 0 11 9 14 20 6 24 -8 27 -17 4z"/>
<path d="M3580 5209 c0 -5 5 -7 10 -4 6 3 10 8 10 11 0 2 -4 4 -10 4 -5 0 -10
-5 -10 -11z"/>
<path d="M3234 5173 c2 -10 -4 -23 -13 -30 -10 -7 -11 -12 -4 -13 6 0 15 5 18
10 11 18 24 11 22 -12 -1 -13 -8 -28 -17 -35 -22 -18 1 -15 24 2 11 8 17 18
13 21 -3 4 0 13 8 21 23 22 18 36 -10 31 -17 -4 -25 -1 -25 8 0 8 -4 14 -9 14
-5 0 -8 -8 -7 -17z"/>
<path d="M3575 5180 c-3 -5 1 -10 9 -10 9 0 16 5 16 10 0 6 -4 10 -9 10 -6 0
-13 -4 -16 -10z"/>
<path d="M3160 5150 c0 -5 5 -10 10 -10 6 0 10 5 10 10 0 6 -4 10 -10 10 -5 0
-10 -4 -10 -10z"/>
<path d="M3743 5131 c-11 -17 -10 -20 7 -18 10 1 16 5 14 9 -3 4 0 8 5 8 6 0
11 5 11 10 0 17 -25 11 -37 -9z"/>
<path d="M1300 5125 c0 -8 5 -15 11 -15 6 0 9 -6 6 -14 -6 -14 31 -52 41 -42
3 3 15 -1 28 -9 21 -14 22 -13 21 20 -1 40 -5 42 -34 15 -18 -16 -23 -17 -33
-6 -8 11 -8 15 1 18 15 5 4 24 -22 38 -15 9 -19 7 -19 -5z"/>
<path d="M3040 5120 c0 -5 7 -10 16 -10 8 0 12 5 9 10 -3 6 -10 10 -16 10 -5
0 -9 -4 -9 -10z"/>
<path d="M3471 5128 c-2 -14 22 -58 31 -58 5 0 6 5 3 10 -3 6 1 10 10 10 20 0
16 32 -5 37 -13 4 -13 3 0 -6 12 -9 11 -11 -7 -11 -12 0 -24 6 -26 13 -3 6 -6
9 -6 5z"/>
<path d="M3206 5111 c-14 -5 -16 -10 -8 -15 7 -4 19 0 28 8 17 17 11 19 -20 7z"/>
<path d="M3552 5100 c0 -14 2 -19 5 -12 2 6 2 18 0 25 -3 6 -5 1 -5 -13z"/>
<path d="M3580 5098 c-1 -5 -3 -11 -4 -15 -9 -37 -20 -54 -32 -49 -8 3 -14 2
-14 -3 0 -5 9 -11 20 -14 15 -4 22 1 26 20 4 15 9 20 14 13 5 -8 10 -6 20 5
10 12 10 15 -3 15 -9 0 -18 8 -20 18 -3 9 -6 14 -7 10z"/>
<path d="M1681 5063 c-1 -18 4 -33 9 -33 12 0 12 17 0 45 -7 17 -9 15 -9 -12z"/>
<path d="M3035 5070 c4 -6 11 -8 16 -5 14 9 11 15 -7 15 -8 0 -12 -5 -9 -10z"/>
<path d="M3165 5070 c3 -5 11 -10 16 -10 6 0 7 5 4 10 -3 6 -11 10 -16 10 -6
0 -7 -4 -4 -10z"/>
<path d="M1656 5057 c3 -10 9 -15 12 -12 3 3 0 11 -7 18 -10 9 -11 8 -5 -6z"/>
<path d="M3117 5046 c-3 -8 -2 -18 3 -21 13 -8 24 15 12 27 -6 6 -11 4 -15 -6z"/>
<path d="M3210 5048 c0 -8 -9 -21 -20 -31 -22 -19 -25 -33 -10 -42 6 -3 10
-15 10 -26 0 -10 4 -19 9 -19 18 0 22 19 9 40 -11 17 -10 25 4 50 10 17 13 32
7 35 -5 4 -9 0 -9 -7z"/>
<path d="M3271 5044 c0 -11 3 -14 6 -6 3 7 2 16 -1 19 -3 4 -6 -2 -5 -13z"/>
<path d="M3704 5045 c3 -8 1 -15 -4 -15 -5 0 -7 -7 -4 -15 7 -18 20 -12 27 14
3 12 -1 22 -10 25 -11 4 -13 2 -9 -9z"/>
<path d="M3290 5030 c0 -5 4 -10 9 -10 6 0 13 5 16 10 3 6 -1 10 -9 10 -9 0
-16 -4 -16 -10z"/>
<path d="M3483 5030 c-30 -12 -29 -18 2 -12 14 2 25 8 25 13 0 5 -1 9 -2 8 -2
0 -13 -4 -25 -9z"/>
<path d="M2953 5003 c-4 -10 -10 -20 -13 -23 -12 -9 -20 -69 -10 -75 6 -3 10
3 10 15 0 11 6 23 14 26 9 3 14 19 13 40 -1 38 -5 42 -14 17z"/>
<path d="M2980 5000 c0 -5 5 -10 10 -10 6 0 10 5 10 10 0 6 -4 10 -10 10 -5 0
-10 -4 -10 -10z"/>
<path d="M1530 4979 c0 -13 5 -31 10 -39 7 -11 8 -5 4 20 -8 43 -14 51 -14 19z"/>
<path d="M3135 4990 c3 -5 8 -10 11 -10 2 0 4 5 4 10 0 6 -5 10 -11 10 -5 0
-7 -4 -4 -10z"/>
<path d="M3281 4984 c0 -11 3 -14 6 -6 3 7 2 16 -1 19 -3 4 -6 -2 -5 -13z"/>
<path d="M1496 4969 c-16 -16 -17 -19 -4 -19 9 0 19 7 22 16 9 24 4 24 -18 3z"/>
<path d="M1565 4965 c2 -17 4 -32 5 -35 1 -6 18 22 19 33 1 4 -2 7 -5 6 -4 0
-10 5 -15 13 -5 8 -7 1 -4 -17z"/>
<path d="M1726 4981 c-4 -5 -2 -12 3 -15 5 -4 12 -2 15 3 4 5 2 12 -3 15 -5 4
-12 2 -15 -3z"/>
<path d="M3050 4979 c0 -5 5 -7 10 -4 6 3 10 8 10 11 0 2 -4 4 -10 4 -5 0 -10
-5 -10 -11z"/>
<path d="M3576 4973 c-6 -14 -5 -15 5 -6 7 7 10 15 7 18 -3 3 -9 -2 -12 -12z"/>
<path d="M3095 4970 c-3 -5 -1 -10 4 -10 6 0 11 5 11 10 0 6 -2 10 -4 10 -3 0
-8 -4 -11 -10z"/>
<path d="M3420 4970 c0 -5 5 -10 10 -10 6 0 10 -8 9 -17 0 -11 -3 -13 -6 -5
-6 16 -23 15 -23 -2 0 -8 -6 -16 -13 -19 -12 -4 -42 -115 -34 -123 7 -8 57 10
54 20 -3 6 -10 10 -16 8 -8 -1 -11 10 -9 33 2 19 6 34 10 33 14 -6 49 52 43
72 -7 21 -25 28 -25 10z"/>
<path d="M3522 4930 c-6 -22 -12 -46 -12 -54 0 -8 -6 -17 -12 -19 -7 -3 -3 -6
9 -6 12 -1 25 4 28 9 4 6 11 8 16 5 5 -4 9 -1 9 4 0 6 6 11 14 11 8 0 18 5 22
12 5 8 2 9 -9 5 -10 -4 -23 -10 -31 -13 -12 -4 -14 4 -11 40 3 57 -6 59 -23 6z"/>
<path d="M3290 4940 c0 -5 5 -10 10 -10 6 0 10 5 10 10 0 6 -4 10 -10 10 -5 0
-10 -4 -10 -10z"/>
<path d="M3015 4930 c-4 -6 3 -10 14 -10 25 0 27 6 6 13 -8 4 -17 2 -20 -3z"/>
<path d="M3360 4915 c0 -8 2 -15 4 -15 2 0 6 7 10 15 3 8 1 15 -4 15 -6 0 -10
-7 -10 -15z"/>
<path d="M3561 4914 c0 -11 3 -14 6 -6 3 7 2 16 -1 19 -3 4 -6 -2 -5 -13z"/>
<path d="M3314 4894 c-7 -25 7 -44 31 -44 6 1 3 5 -6 10 -11 6 -15 18 -11 35
6 33 -6 32 -14 -1z"/>
<path d="M3480 4910 c0 -5 5 -10 10 -10 6 0 10 5 10 10 0 6 -4 10 -10 10 -5 0
-10 -4 -10 -10z"/>
<path d="M1855 4880 c3 -5 10 -10 16 -10 5 0 9 5 9 10 0 6 -7 10 -16 10 -8 0
-12 -4 -9 -10z"/>
<path d="M3010 4885 c-1 -5 -2 -13 -1 -17 0 -5 -6 -8 -14 -8 -8 0 -15 -7 -15
-15 0 -19 7 -19 26 0 9 8 13 23 11 33 -3 9 -6 13 -7 7z"/>
<path d="M3467 4883 c-11 -10 -8 -33 4 -33 5 0 7 5 3 11 -3 6 0 15 7 20 8 5 9
9 3 9 -6 0 -14 -3 -17 -7z"/>
<path d="M3201 4864 c0 -11 3 -14 6 -6 3 7 2 16 -1 19 -3 4 -6 -2 -5 -13z"/>
<path d="M2844 4847 c2 -15 -1 -30 -6 -33 -5 -3 -6 -14 -3 -25 4 -11 2 -19 -4
-19 -6 0 -11 -6 -11 -12 1 -7 10 -2 20 11 21 25 24 54 9 86 -8 17 -9 16 -5 -8z"/>
<path d="M2916 4853 c-6 -14 -5 -15 5 -6 7 7 10 15 7 18 -3 3 -9 -2 -12 -12z"/>
<path d="M2961 4853 c0 -13 -8 -23 -16 -23 -8 0 -15 -4 -15 -10 0 -12 10 -13
28 -1 8 5 12 19 9 32 -4 23 -4 23 -6 2z"/>
<path d="M3430 4851 c0 -25 6 -27 13 -6 4 8 2 17 -3 20 -6 4 -10 -3 -10 -14z"/>
<path d="M2811 4844 c0 -11 3 -14 6 -6 3 7 2 16 -1 19 -3 4 -6 -2 -5 -13z"/>
<path d="M3280 4850 c0 -5 7 -10 16 -10 8 0 12 5 9 10 -3 6 -10 10 -16 10 -5
0 -9 -4 -9 -10z"/>
<path d="M3223 4835 c-3 -9 -3 -18 -1 -21 3 -3 8 4 11 16 6 23 -1 27 -10 5z"/>
<path d="M2660 4804 c-12 -32 -12 -34 0 -34 6 0 10 7 10 15 0 8 5 15 10 15 6
0 10 7 10 15 0 24 -20 17 -30 -11z"/>
<path d="M3266 4815 c-3 -8 -1 -15 4 -15 6 0 10 7 10 15 0 8 -2 15 -4 15 -2 0
-6 -7 -10 -15z"/>
<path d="M3293 4815 c-3 -9 -3 -19 1 -22 3 -4 6 1 6 10 0 8 6 18 13 20 9 4 9
6 -1 6 -7 1 -15 -6 -19 -14z"/>
<path d="M3446 4815 c-3 -8 -1 -15 4 -15 6 0 10 7 10 15 0 8 -2 15 -4 15 -2 0
-6 -7 -10 -15z"/>
<path d="M1928 4803 c7 -3 16 -2 19 1 4 3 -2 6 -13 5 -11 0 -14 -3 -6 -6z"/>
<path d="M2876 4794 c-4 -9 -4 -19 -1 -22 2 -3 7 3 11 12 4 9 4 19 1 22 -2 3
-7 -3 -11 -12z"/>
<path d="M2970 4799 c0 -5 5 -7 10 -4 6 3 10 8 10 11 0 2 -4 4 -10 4 -5 0 -10
-5 -10 -11z"/>
<path d="M3320 4794 c0 -8 5 -12 10 -9 6 4 8 11 5 16 -9 14 -15 11 -15 -7z"/>
<path d="M3230 4779 c0 -5 5 -7 10 -4 6 3 10 8 10 11 0 2 -4 4 -10 4 -5 0 -10
-5 -10 -11z"/>
<path d="M3385 4780 c-3 -5 -1 -10 4 -10 6 0 11 5 11 10 0 6 -2 10 -4 10 -3 0
-8 -4 -11 -10z"/>
<path d="M2760 4754 c0 -8 5 -12 10 -9 6 3 10 10 10 16 0 5 -4 9 -10 9 -5 0
-10 -7 -10 -16z"/>
<path d="M2635 4746 c-1 -6 -7 -29 -13 -50 -7 -25 -8 -45 -2 -55 8 -14 9 -14
10 -1 0 13 1 13 10 0 5 -8 12 -11 16 -7 4 3 1 13 -5 21 -16 20 -4 38 19 31 10
-3 21 -1 25 5 3 5 1 10 -4 10 -6 0 -11 7 -11 16 0 8 -4 12 -10 9 -5 -3 -10 -1
-10 4 0 6 14 11 30 11 17 0 30 4 30 10 0 13 -81 9 -85 -4z"/>
<path d="M2894 4745 c-3 -8 -4 -20 -2 -27 3 -7 7 -1 10 15 6 29 1 36 -8 12z"/>
<path d="M2913 4719 c-7 -17 -17 -28 -22 -24 -6 3 -11 1 -11 -4 0 -6 4 -11 9
-11 16 0 41 31 41 51 0 26 -4 24 -17 -12z"/>
<path d="M2801 4724 c0 -11 3 -14 6 -6 3 7 2 16 -1 19 -3 4 -6 -2 -5 -13z"/>
<path d="M3220 4736 c0 -2 7 -9 15 -16 9 -7 15 -8 15 -2 0 5 -7 12 -15 16 -8
3 -15 4 -15 2z"/>
<path d="M2961 4714 c0 -11 3 -14 6 -6 3 7 2 16 -1 19 -3 4 -6 -2 -5 -13z"/>
<path d="M3354 4719 c-12 -20 12 -31 27 -12 13 17 13 17 -5 3 -18 -14 -19 -13
-13 3 7 19 2 23 -9 6z"/>
<path d="M2572 4700 c0 -14 2 -19 5 -12 2 6 2 18 0 25 -3 6 -5 1 -5 -13z"/>
<path d="M2844 4699 c-3 -6 -14 -9 -24 -6 -12 3 -17 0 -14 -8 6 -14 44 -8 44
7 0 5 5 6 10 3 6 -3 10 -1 10 4 0 14 -17 14 -26 0z"/>
<path d="M2710 4670 c0 -5 5 -10 11 -10 5 0 7 5 4 10 -3 6 -8 10 -11 10 -2 0
-4 -4 -4 -10z"/>
<path d="M2585 4660 c3 -5 8 -10 11 -10 2 0 4 5 4 10 0 6 -5 10 -11 10 -5 0
-7 -4 -4 -10z"/>
<path d="M2560 4635 c0 -8 2 -15 4 -15 2 0 6 7 10 15 3 8 1 15 -4 15 -6 0 -10
-7 -10 -15z"/>
<path d="M2765 4640 c-3 -5 -2 -10 4 -10 5 0 13 5 16 10 3 6 2 10 -4 10 -5 0
-13 -4 -16 -10z"/>
<path d="M3186 4631 c-4 -7 -5 -15 -2 -18 9 -9 19 4 14 18 -4 11 -6 11 -12 0z"/>
<path d="M2636 4613 c-10 -10 -7 -25 4 -18 21 13 9 -14 -15 -33 -25 -20 -24
-35 1 -25 8 3 14 11 14 19 0 7 8 17 17 22 15 9 15 11 1 25 -9 9 -18 13 -22 10z"/>
<path d="M2680 4611 c0 -5 5 -13 10 -16 6 -3 10 -2 10 4 0 5 -4 13 -10 16 -5
3 -10 2 -10 -4z"/>
<path d="M2820 4610 c0 -5 5 -10 10 -10 6 0 10 5 10 10 0 6 -4 10 -10 10 -5 0
-10 -4 -10 -10z"/>
<path d="M2560 4590 c0 -5 4 -10 9 -10 6 0 13 5 16 10 3 6 -1 10 -9 10 -9 0
-16 -4 -16 -10z"/>
<path d="M3170 4585 c0 -8 3 -15 6 -15 3 0 12 7 20 15 14 13 13 15 -5 15 -12
0 -21 -6 -21 -15z"/>
<path d="M2605 4580 c-3 -5 -1 -10 4 -10 6 0 11 5 11 10 0 6 -2 10 -4 10 -3 0
-8 -4 -11 -10z"/>
<path d="M2565 4549 c-11 -17 1 -21 15 -4 8 9 8 15 2 15 -6 0 -14 -5 -17 -11z"/>
<path d="M2721 4544 c0 -11 3 -14 6 -6 3 7 2 16 -1 19 -3 4 -6 -2 -5 -13z"/>
<path d="M2841 4534 c0 -11 3 -14 6 -6 3 7 2 16 -1 19 -3 4 -6 -2 -5 -13z"/>
<path d="M2020 4511 c19 -17 39 -31 43 -31 16 0 -3 18 -40 39 l-38 22 35 -30z"/>
<path d="M3150 4530 c-9 -6 -10 -10 -3 -10 6 0 15 5 18 10 8 12 4 12 -15 0z"/>
<path d="M2535 4503 c8 -8 19 -11 25 -8 17 11 11 20 -15 21 -21 2 -22 0 -10
-13z"/>
<path d="M2600 4470 c0 -11 5 -20 10 -20 6 0 10 9 10 20 0 11 -4 20 -10 20 -5
0 -10 -9 -10 -20z"/>
<path d="M2095 4460 c3 -5 8 -10 11 -10 2 0 4 5 4 10 0 6 -5 10 -11 10 -5 0
-7 -4 -4 -10z"/>
<path d="M2500 4450 c0 -5 5 -10 10 -10 6 0 10 5 10 10 0 6 -4 10 -10 10 -5 0
-10 -4 -10 -10z"/>
<path d="M2575 4330 c-3 -5 1 -10 9 -10 9 0 16 5 16 10 0 6 -4 10 -9 10 -6 0
-13 -4 -16 -10z"/>
<path d="M2786 3297 c-39 -37 -44 -47 -22 -47 8 0 17 -6 19 -12 4 -10 8 -9 16
2 13 19 14 5 2 -19 -12 -22 -2 -69 10 -49 12 18 11 31 -1 23 -5 -3 -10 -2 -10
4 0 5 5 11 10 13 6 2 12 14 15 27 2 14 10 29 17 34 9 6 6 7 -7 2 -48 -17 -57
-15 -22 6 36 22 43 39 20 46 -6 2 -27 -11 -47 -30z"/>
<path d="M2851 3251 c-7 -5 -10 -14 -6 -20 5 -9 10 -9 21 0 26 22 14 38 -15
20z"/>
<path d="M2917 3249 c7 -7 15 -10 18 -7 3 3 -2 9 -12 12 -14 6 -15 5 -6 -5z"/>
<path d="M2671 3209 c-21 -21 -42 -39 -47 -39 -14 0 -87 -70 -80 -77 3 -3 13
0 23 8 15 12 16 12 10 -3 -3 -10 -3 -18 2 -18 14 0 31 26 23 35 -4 4 3 4 16 0
12 -3 22 -3 21 2 -3 18 14 53 26 53 8 0 12 -9 9 -22 -2 -13 1 -8 8 10 6 18 24
40 40 50 33 19 35 28 8 35 -14 4 -31 -6 -59 -34z"/>
<path d="M2890 3219 c0 -11 4 -18 10 -14 5 3 7 12 3 20 -7 21 -13 19 -13 -6z"/>
<path d="M2756 3214 c-7 -17 0 -34 13 -34 5 0 9 11 9 25 0 28 -13 33 -22 9z"/>
<path d="M2920 3220 c0 -5 5 -10 10 -10 6 0 10 5 10 10 0 6 -4 10 -10 10 -5 0
-10 -4 -10 -10z"/>
<path d="M2835 3201 c-6 -11 9 -23 19 -14 9 9 7 23 -3 23 -6 0 -12 -4 -16 -9z"/>
<path d="M2877 3189 c7 -7 15 -10 18 -7 3 3 -2 9 -12 12 -14 6 -15 5 -6 -5z"/>
<path d="M2707 3169 c-4 -16 -3 -18 8 -9 10 8 16 7 24 -7 8 -14 10 -15 11 -2
0 15 -18 39 -31 39 -4 0 -9 -9 -12 -21z"/>
<path d="M2929 3177 c6 -8 7 -18 3 -22 -4 -5 -1 -5 6 -1 18 10 15 36 -4 36
-13 0 -14 -3 -5 -13z"/>
<path d="M2820 3119 c0 -5 5 -7 10 -4 6 3 10 8 10 11 0 2 -4 4 -10 4 -5 0 -10
-5 -10 -11z"/>
<path d="M2710 3105 c0 -8 2 -15 4 -15 2 0 6 7 10 15 3 8 1 15 -4 15 -6 0 -10
-7 -10 -15z"/>
<path d="M2771 3104 c0 -11 3 -14 6 -6 3 7 2 16 -1 19 -3 4 -6 -2 -5 -13z"/>
<path d="M2890 3110 c0 -5 5 -10 10 -10 6 0 10 5 10 10 0 6 -4 10 -10 10 -5 0
-10 -4 -10 -10z"/>
<path d="M2617 3084 c-3 -5 1 -15 9 -22 16 -14 18 -5 5 17 -5 7 -11 9 -14 5z"/>
<path d="M2735 3080 c-4 -6 -11 -7 -17 -4 -6 4 -8 2 -4 -4 4 -6 -3 -12 -16
-14 -22 -3 -22 -4 -3 -9 13 -4 29 3 45 18 13 12 19 23 13 23 -7 0 -15 -5 -18
-10z"/>
<path d="M2499 3053 c-13 -16 -12 -17 4 -4 9 7 17 15 17 17 0 8 -8 3 -21 -13z"/>
<path d="M2546 3055 c4 -8 8 -15 10 -15 2 0 4 7 4 15 0 8 -4 15 -10 15 -5 0
-7 -7 -4 -15z"/>
<path d="M2766 3061 c-4 -7 -5 -15 -2 -18 9 -9 19 4 14 18 -4 11 -6 11 -12 0z"/>
<path d="M2685 3030 c-3 -5 -1 -10 4 -10 6 0 11 5 11 10 0 6 -2 10 -4 10 -3 0
-8 -4 -11 -10z"/>
<path d="M2551 3021 c-8 -5 -9 -11 -3 -15 5 -3 12 1 16 9 6 17 6 18 -13 6z"/>
<path d="M2455 2990 c-3 -5 -1 -10 4 -10 6 0 11 5 11 10 0 6 -2 10 -4 10 -3 0
-8 -4 -11 -10z"/>
<path d="M2570 2985 c-8 -9 -8 -15 -2 -15 12 0 26 19 19 26 -2 2 -10 -2 -17
-11z"/>
<path d="M2425 2920 c-3 -5 1 -10 9 -10 9 0 16 5 16 10 0 6 -4 10 -9 10 -6 0
-13 -4 -16 -10z"/>
<path d="M2388 2896 c-19 -14 -23 -26 -10 -26 4 0 13 9 20 20 14 23 13 24 -10
6z"/>
<path d="M2520 2891 c0 -9 -9 -11 -27 -7 -27 5 -27 5 -5 -6 17 -9 26 -8 34 0
6 6 9 15 5 19 -4 3 -7 1 -7 -6z"/>
<path d="M2278 2833 c7 -3 16 -2 19 1 4 3 -2 6 -13 5 -11 0 -14 -3 -6 -6z"/>
<path d="M2410 2830 c0 -5 6 -10 14 -10 8 0 18 5 21 10 3 6 -3 10 -14 10 -12
0 -21 -4 -21 -10z"/>
<path d="M2245 2820 c3 -5 11 -10 16 -10 6 0 7 5 4 10 -3 6 -11 10 -16 10 -6
0 -7 -4 -4 -10z"/>
<path d="M2365 2801 c-3 -5 -1 -12 5 -16 5 -3 10 1 10 9 0 18 -6 21 -15 7z"/>
<path d="M2185 2622 c0 -25 3 -28 25 -23 18 4 20 6 8 9 -10 2 -18 12 -18 23 0
10 -3 19 -7 19 -5 0 -8 -13 -8 -28z"/>
<path d="M2210 2540 c0 -5 5 -10 10 -10 6 0 10 5 10 10 0 6 -4 10 -10 10 -5 0
-10 -4 -10 -10z"/>
<path d="M2246 2504 c-5 -14 -4 -15 9 -4 17 14 19 20 6 20 -5 0 -12 -7 -15
-16z"/>
<path d="M2333 2449 c14 -8 22 -8 30 0 8 8 3 11 -18 11 -26 -1 -28 -2 -12 -11z"/>
</g>
</svg>
